<?xml version="1.0" standalone="no"?>
<!DOCTYPE svg PUBLIC "-//W3C//DTD SVG 20010904//EN"
 "http://www.w3.org/TR/2001/REC-SVG-20010904/DTD/svg10.dtd">
<svg version="1.0" xmlns="http://www.w3.org/2000/svg"
 width="1280.000000pt" height="903.000000pt" viewBox="0 0 1280.000000 903.000000"
 preserveAspectRatio="xMidYMid meet">
<metadata>
Created by potrace 1.15, written by Peter Selinger 2001-2017
</metadata>
<g transform="translate(0.000000,903.000000) scale(0.100000,-0.100000)"
fill="#a69a18" stroke="none">
<path d="M6259 7663 c-65 -71 -103 -136 -176 -300 -73 -167 -106 -291 -96
-366 10 -80 59 -104 91 -46 9 17 31 51 48 75 l31 45 11 -43 c11 -43 53 -95 69
-85 5 3 31 -1 60 -8 38 -10 61 -11 92 -3 38 10 47 8 92 -16 56 -31 95 -30 176
5 l43 18 0 -35 c0 -69 48 -119 77 -81 6 6 13 35 16 64 5 46 27 109 81 234 14
35 17 36 102 53 47 9 89 15 91 12 3 -2 -17 -40 -43 -83 -49 -80 -59 -128 -34
-158 24 -29 84 -13 156 42 l32 24 6 -36 c5 -26 14 -39 33 -46 33 -12 51 -6 96
34 l36 34 12 -29 c17 -42 52 -62 91 -54 34 7 43 8 138 7 65 -1 156 17 188 37
12 8 25 12 28 9 3 -3 -7 -59 -22 -125 l-27 -119 -76 -19 c-99 -24 -187 -82
-218 -142 -46 -92 -40 -205 17 -320 39 -78 68 -103 124 -109 43 -5 48 -3 84
33 50 50 74 116 114 312 17 86 34 160 37 164 5 6 110 20 306 42 127 14 160 21
177 35 25 22 23 30 -9 30 -16 0 -68 2 -118 4 -49 2 -144 1 -210 -4 -66 -4
-121 -6 -124 -4 -11 12 75 296 104 341 19 29 21 56 7 81 -10 17 -8 29 8 65 24
55 18 94 -20 132 -25 25 -37 30 -77 29 -121 -2 -311 -132 -395 -268 -11 -19
-18 -24 -18 -13 0 18 -47 78 -61 78 -5 0 -32 -24 -59 -52 l-50 -53 0 35 c0 19
-6 42 -13 51 -18 23 -56 41 -73 35 -12 -4 -14 -1 -9 14 8 24 -43 80 -72 80
-10 0 -56 -9 -103 -20 -46 -10 -86 -17 -89 -15 -2 2 13 42 32 88 54 126 97
245 97 271 0 25 -42 70 -60 64 -7 -2 -31 -62 -55 -133 -23 -72 -62 -172 -85
-222 l-43 -93 -38 0 c-21 0 -53 9 -72 20 -28 16 -36 18 -51 7 -14 -11 -15 -17
-6 -42 17 -45 39 -65 82 -71 34 -6 38 -9 32 -28 -12 -37 -46 -107 -51 -102 -2
2 -35 -4 -71 -15 -37 -10 -78 -19 -91 -19 -25 0 -24 1 11 38 40 41 78 110 78
141 0 24 -58 71 -87 71 -25 0 -116 -102 -138 -154 -15 -34 -58 -67 -71 -53 -3
3 7 25 24 49 46 68 80 140 87 189 6 43 5 47 -29 77 -20 18 -47 32 -60 32 l-23
0 22 48 c24 49 45 134 45 179 0 31 -68 103 -97 103 -11 0 -40 -21 -64 -47z
m65 -105 c-12 -59 -54 -134 -106 -192 -28 -31 -53 -55 -55 -52 -15 14 140 276
163 276 3 0 2 -15 -2 -32z m1586 -262 c0 -41 -186 -247 -245 -272 -40 -16
-125 -19 -125 -3 0 60 196 244 292 274 56 18 78 18 78 1z m-1550 -26 c0 -16
-33 -82 -63 -128 l-29 -44 -24 23 c-13 12 -24 27 -24 32 0 12 119 127 131 127
5 0 9 -4 9 -10z m1376 -667 c-3 -10 -15 -65 -26 -123 -35 -167 -77 -260 -119
-260 -29 0 -66 92 -66 164 0 108 34 161 130 207 70 34 88 36 81 12z"/>
<path d="M7340 7677 c0 -18 5 -38 12 -45 24 -24 98 -7 98 22 0 23 -45 56 -78
56 -30 0 -32 -3 -32 -33z"/>
<path d="M5515 7319 c-14 -18 -35 -50 -46 -72 -28 -55 -69 -193 -69 -234 0
-26 -4 -33 -19 -33 -10 0 -33 -3 -50 -6 -30 -6 -31 -5 -31 28 0 20 16 70 36
113 19 42 38 92 41 110 5 30 2 36 -28 54 -19 12 -38 19 -44 18 -21 -7 -55 -72
-85 -162 -28 -85 -37 -99 -83 -141 -28 -25 -53 -41 -55 -35 -2 6 14 49 36 94
43 86 58 142 48 174 -6 19 -55 53 -76 53 -14 0 -51 -84 -85 -193 -22 -74 -32
-91 -73 -129 l-47 -43 -3 31 c-4 44 20 135 63 236 21 48 35 94 32 102 -8 21
-54 49 -71 43 -7 -3 -26 -38 -41 -79 -15 -40 -38 -96 -51 -125 -28 -58 -105
-149 -134 -158 -29 -9 -37 -51 -15 -75 23 -25 65 -25 97 0 l25 19 24 -37 c21
-32 30 -37 66 -40 34 -3 52 3 87 27 43 30 44 30 61 11 27 -30 83 -26 133 9 22
16 43 34 47 40 4 7 19 2 41 -13 39 -26 94 -26 147 1 24 12 30 12 49 -2 13 -8
41 -15 63 -15 35 0 49 7 96 49 l55 49 17 -29 c9 -16 24 -32 34 -35 10 -3 28
-11 41 -17 44 -21 71 1 98 78 13 39 35 97 49 130 14 33 32 87 40 120 14 56 14
61 -2 73 -16 11 -21 9 -43 -17 -38 -44 -82 -109 -110 -160 l-25 -46 -3 55 c-3
78 -9 98 -31 105 -11 3 -29 22 -40 41 -22 36 -71 64 -115 64 -15 0 -34 -12
-51 -31z m66 -144 c-11 -26 -25 -44 -31 -40 -16 10 -12 28 18 74 33 52 42 31
13 -34z m-61 -176 c0 -5 -4 -9 -10 -9 -5 0 -10 7 -10 16 0 8 5 12 10 9 6 -3
10 -10 10 -16z"/>
<path d="M2597 6923 c-4 -3 -7 -28 -7 -54 0 -102 -57 -327 -82 -320 -56 17
-72 -12 -42 -75 18 -37 18 -37 -20 -147 -48 -140 -54 -193 -31 -252 16 -42 20
-46 48 -43 38 4 64 39 72 99 5 35 3 50 -9 62 -22 21 -20 39 11 128 l27 77 115
4 c155 6 165 4 157 -36 -4 -17 -20 -60 -36 -95 -27 -56 -29 -68 -20 -102 9
-33 15 -39 38 -39 45 0 59 19 96 130 42 122 43 138 15 174 -41 52 -72 61 -207
59 -111 -1 -123 0 -119 15 42 137 58 201 67 258 13 96 13 99 -16 133 -25 30
-44 38 -57 24z"/>
<path d="M1444 6879 c-3 -5 -2 -23 1 -40 11 -50 75 -65 92 -23 11 28 -77 88
-93 63z"/>
<path d="M1793 6853 c-6 -2 -30 -60 -53 -129 -45 -133 -40 -128 -97 -107 -20
8 -26 -46 -13 -116 11 -60 10 -73 -9 -137 -37 -125 -21 -214 38 -214 16 0 33
6 39 13 15 18 42 133 42 178 0 36 0 36 51 43 28 4 54 5 56 2 3 -3 -2 -26 -11
-52 -30 -87 -15 -169 31 -181 30 -7 60 6 106 47 l36 31 13 -28 c10 -21 21 -29
47 -31 43 -4 56 9 58 61 0 23 11 63 22 89 24 53 17 77 -26 97 -39 18 -52 13
-105 -39 -28 -27 -54 -50 -58 -50 -5 0 -2 21 6 47 21 69 18 98 -12 122 -33 26
-50 26 -114 1 -28 -11 -58 -20 -66 -20 -19 0 -17 6 50 176 39 97 50 136 43
151 -10 23 -57 52 -74 46z"/>
<path d="M2951 6786 c-20 -24 -3 -85 24 -92 46 -11 82 15 69 51 -5 13 -63 55
-76 55 -3 0 -11 -6 -17 -14z"/>
<path d="M2350 6774 c-10 -11 -11 -25 -4 -52 8 -32 13 -37 40 -40 30 -3 64 17
64 38 0 10 -68 70 -79 70 -5 0 -14 -7 -21 -16z"/>
<path d="M11224 6662 c-6 -4 -23 -43 -38 -87 -15 -44 -44 -116 -65 -160 l-38
-80 -15 36 c-48 111 -134 93 -236 -50 l-46 -65 -7 33 c-9 46 -41 85 -70 89
-20 2 -32 -7 -58 -43 -18 -25 -34 -45 -36 -45 -3 0 -11 13 -19 29 -9 16 -25
31 -36 34 -26 7 -43 -28 -61 -126 -13 -69 -29 -90 -29 -38 0 35 -55 120 -91
140 -54 30 -111 -19 -130 -111 -31 -149 -28 -179 19 -222 40 -35 143 3 184 68
l19 31 -3 -30 c-1 -17 4 -45 11 -63 11 -27 19 -32 39 -30 20 2 34 20 71 91 59
113 128 204 144 188 6 -6 19 -11 29 -11 16 0 16 -3 -2 -46 -35 -81 -20 -172
33 -207 38 -25 99 -21 158 9 l51 25 17 -22 c22 -32 23 -32 48 -46 13 -7 31
-13 42 -13 12 0 21 -9 25 -25 8 -32 40 -48 81 -41 38 7 173 92 223 140 101 94
65 175 -78 176 -59 1 -63 2 -46 15 11 8 32 15 47 15 31 0 74 31 81 58 5 18
-42 82 -59 82 -19 0 -119 -58 -157 -91 -52 -46 -63 -92 -34 -139 18 -31 31
-36 113 -48 l50 -7 -60 -41 c-33 -22 -74 -45 -91 -51 -27 -10 -31 -8 -46 17
-9 16 -27 30 -40 32 -19 2 -23 10 -26 46 -2 25 3 53 11 65 7 12 28 56 45 97
17 41 47 110 67 153 41 87 75 182 75 207 0 18 -36 70 -48 70 -4 0 -12 -4 -18
-8z m-224 -348 c0 -32 -53 -84 -86 -84 -29 0 -30 4 -3 42 17 24 73 68 87 68 1
0 2 -12 2 -26z m-606 -117 c11 -30 -10 -67 -53 -95 l-23 -16 21 35 c12 19 21
51 21 72 0 45 19 46 34 4z m514 -73 c15 -3 32 -7 37 -9 15 -4 -77 -45 -102
-45 -28 0 -30 24 -7 78 l15 37 15 -27 c8 -16 26 -30 42 -34z"/>
<path d="M1194 6622 c-10 -6 -88 -162 -136 -271 -26 -59 -45 -131 -40 -156 1
-12 13 -33 25 -49 37 -46 76 -31 170 67 42 44 77 75 77 68 0 -7 10 -26 21 -43
22 -30 35 -32 95 -13 15 5 23 0 31 -18 7 -14 22 -28 34 -32 37 -12 56 20 64
105 6 67 4 77 -15 97 -34 37 -68 40 -94 9 l-21 -28 0 42 c0 34 -6 47 -28 66
-37 32 -59 30 -86 -7 -42 -57 -143 -170 -147 -166 -7 6 66 162 100 215 15 24
26 53 24 65 -3 24 -58 60 -74 49z"/>
<path d="M3373 6532 c-35 -42 -85 -102 -111 -132 l-49 -54 1 86 c1 89 -9 114
-56 139 -39 21 -45 4 -48 -129 -1 -70 -2 -161 -3 -203 -2 -84 9 -109 50 -109
27 0 45 17 117 115 91 123 156 203 171 209 18 6 75 84 75 102 0 20 -41 54 -64
54 -14 0 -42 -26 -83 -78z"/>
<path d="M8190 6490 c-12 -8 -9 -10 13 -10 15 0 27 5 27 10 0 13 -20 13 -40 0z"/>
<path d="M2195 6450 c-3 -5 -10 -44 -15 -87 -5 -43 -13 -101 -18 -129 -16 -95
24 -168 78 -141 22 11 25 18 22 57 -2 25 4 81 12 125 9 44 16 93 16 108 0 47
-75 100 -95 67z"/>
<path d="M9036 6403 c-8 -10 -44 -54 -79 -98 -36 -44 -84 -98 -107 -120 l-41
-40 21 55 c53 133 55 139 33 168 -12 17 -32 28 -50 30 -29 3 -30 1 -42 -55
-23 -103 -109 -309 -137 -328 -20 -13 -24 -22 -20 -40 4 -14 -3 -47 -14 -78
-24 -64 -16 -100 25 -119 34 -15 46 -3 65 70 l16 57 64 -2 c123 -5 265 -46
299 -87 18 -21 41 -20 57 2 22 28 16 46 -28 89 -34 33 -52 42 -88 46 -36 4
-207 37 -218 43 -1 0 64 68 146 150 82 82 156 161 166 177 17 25 17 29 2 52
-25 38 -53 49 -70 28z"/>
<path d="M6030 6375 c-7 -8 -16 -45 -20 -82 -9 -77 -86 -269 -147 -364 -10
-16 -14 -35 -10 -51 8 -31 35 -60 50 -55 13 4 50 65 118 191 44 83 48 87 59
66 12 -23 16 -295 6 -415 -3 -33 -8 -116 -12 -185 -3 -69 -8 -128 -11 -133
-10 -16 10 -48 39 -63 54 -28 57 -18 65 266 8 278 7 470 -2 510 -3 14 12 -8
34 -48 22 -41 46 -81 54 -90 9 -9 19 -30 22 -45 8 -29 43 -51 69 -41 13 5 36
46 36 66 0 5 -23 35 -50 65 -60 65 -71 85 -111 201 -32 89 -67 160 -92 180 -7
6 -30 18 -49 27 -32 13 -38 13 -48 0z m90 -171 c0 -8 -5 -12 -10 -9 -6 4 -8
11 -5 16 9 14 15 11 15 -7z"/>
<path d="M10086 6359 c-55 -43 -98 -149 -76 -188 17 -32 44 -25 68 18 24 41
52 71 52 53 0 -31 -76 -172 -92 -172 -4 0 -8 9 -8 20 0 28 -35 60 -65 60 -20
0 -28 -8 -41 -40 -17 -43 -53 -74 -97 -85 -25 -7 -27 -5 -27 28 0 36 45 156
80 213 20 31 20 35 5 64 -13 25 -22 31 -43 28 -22 -2 -33 -15 -59 -63 -48 -91
-77 -201 -69 -258 14 -89 81 -134 161 -107 33 11 39 10 59 -9 12 -12 33 -21
46 -21 55 0 135 82 196 200 25 48 29 66 29 142 0 78 -2 89 -24 112 -30 31 -59
33 -95 5z"/>
<path d="M9191 6291 c-40 -50 -76 -128 -96 -210 -16 -59 -16 -67 0 -106 31
-83 85 -94 191 -40 45 22 70 30 73 23 8 -25 51 -58 75 -58 13 0 47 18 76 41
l52 41 -7 -69 c-20 -213 -42 -322 -72 -355 -24 -27 -57 -22 -109 18 -66 50
-108 68 -123 50 -19 -23 4 -61 68 -110 100 -77 165 -94 213 -56 46 35 67 106
93 312 25 194 52 326 80 394 8 20 15 45 15 55 0 25 -39 59 -67 59 -18 0 -24
-8 -34 -42 -6 -24 -27 -66 -48 -94 -39 -55 -118 -130 -127 -121 -3 3 1 47 10
98 9 51 16 107 16 124 0 38 -26 65 -63 65 -25 0 -27 -3 -27 -47 -1 -27 -6 -77
-13 -113 l-12 -65 -65 -37 c-36 -20 -77 -40 -92 -43 l-27 -7 23 74 c21 68 24
73 49 71 17 -1 37 9 58 28 28 26 30 33 24 67 -8 44 -50 92 -81 92 -14 0 -34
-15 -53 -39z"/>
<path d="M4490 6249 c0 -6 7 -24 17 -39 16 -28 16 -29 -13 -53 l-29 -25 3
-238 c2 -229 3 -238 24 -261 24 -25 50 -30 66 -10 12 14 49 159 66 260 l12 69
48 -73 c84 -126 298 -500 342 -599 24 -52 53 -105 65 -118 29 -30 63 -26 67 9
4 33 -93 233 -170 351 -30 46 -83 133 -117 193 -35 61 -92 154 -127 208 -35
54 -64 100 -64 102 0 13 44 1 157 -41 68 -25 128 -42 133 -39 14 9 12 58 -2
78 -7 9 -56 30 -109 45 -133 40 -181 67 -243 134 -47 50 -59 58 -90 58 -20 0
-36 -5 -36 -11z"/>
<path d="M7840 6133 c-52 -18 -129 -48 -170 -67 -41 -19 -101 -45 -132 -59
-62 -28 -67 -38 -47 -96 6 -17 17 -31 25 -31 8 0 55 21 105 46 106 53 260 116
267 110 2 -3 2 -17 -2 -31 -5 -21 -10 -24 -26 -15 -27 14 -50 12 -50 -4 0 -8
-20 -32 -44 -53 -63 -55 -346 -313 -541 -493 -38 -36 -132 -121 -207 -188 -76
-68 -138 -130 -138 -138 0 -26 30 -74 45 -74 9 0 23 9 33 21 9 11 100 98 202
192 102 94 217 201 255 238 39 37 98 91 131 120 34 30 109 98 168 152 112 101
152 121 142 70 -21 -109 -26 -211 -13 -257 15 -56 37 -77 65 -60 22 15 27 41
12 70 -10 18 -10 43 0 121 13 105 54 317 71 370 7 23 7 37 -2 52 -25 38 -48
39 -149 4z"/>
<path d="M10630 5135 c-7 -16 -29 -75 -50 -130 -54 -144 -125 -316 -176 -426
-61 -133 -72 -189 -47 -254 14 -38 24 -51 42 -53 13 -2 27 0 32 5 5 5 11 47
12 94 5 118 38 179 78 143 24 -22 24 -40 -1 -113 -31 -92 -1 -162 51 -118 8 6
42 67 75 135 l59 123 50 -6 c96 -11 114 39 28 77 -27 11 -60 31 -75 45 -39 37
-62 27 -68 -27 -3 -25 -12 -56 -19 -69 l-13 -23 -44 43 c-24 24 -44 46 -44 51
0 4 38 98 84 210 47 112 88 215 91 229 5 21 0 34 -23 60 l-31 34 -11 -30z"/>
<path d="M5441 5094 c-161 -42 -318 -130 -433 -245 -71 -71 -100 -118 -118
-192 -16 -62 6 -140 52 -184 51 -49 106 -60 233 -44 197 24 260 15 324 -50 61
-61 75 -122 42 -187 -78 -151 -378 -219 -566 -126 -71 34 -80 50 -54 94 18 28
19 37 8 57 -16 29 -23 29 -65 -3 -41 -31 -44 -65 -14 -125 27 -52 123 -123
192 -140 30 -8 106 -14 173 -14 97 0 134 4 192 23 139 43 227 145 226 263 -1
114 -97 251 -210 301 -49 22 -79 22 -344 2 -81 -6 -88 -5 -109 16 -26 26 -23
58 15 136 101 207 502 400 641 310 19 -13 23 -21 15 -29 -27 -27 12 -100 49
-90 48 13 44 77 -10 151 -52 72 -142 100 -239 76z"/>
<path d="M992 5063 c-5 -10 -12 -41 -16 -69 -8 -64 -51 -193 -107 -319 -35
-81 -44 -94 -52 -79 -16 30 -49 64 -64 64 -21 0 -26 -47 -9 -97 9 -25 16 -64
16 -84 0 -49 -28 -108 -49 -106 -9 0 -54 -10 -99 -22 -45 -13 -85 -21 -88 -18
-3 3 6 41 20 84 35 105 34 146 -3 184 -16 16 -38 29 -49 29 -10 0 -47 -26 -82
-57 -36 -33 -60 -49 -56 -38 29 71 126 359 126 374 0 19 -39 61 -57 61 -6 0
-14 -15 -18 -32 -11 -54 -52 -181 -124 -388 -81 -230 -89 -266 -66 -309 8 -17
22 -31 29 -31 8 0 42 44 75 98 61 98 145 202 161 202 5 0 -2 -29 -15 -65 -14
-36 -25 -81 -25 -101 0 -36 24 -93 44 -106 23 -16 79 -7 148 22 38 17 72 30
73 30 2 0 6 -13 10 -29 3 -16 13 -35 21 -41 33 -28 64 18 89 134 20 92 19 91
76 94 28 1 81 9 117 17 36 9 66 14 68 13 1 -2 -2 -21 -8 -43 -14 -52 -3 -126
23 -154 29 -31 67 -26 140 18 l64 39 27 -29 c15 -16 36 -29 47 -29 38 0 98 31
121 62 l22 30 20 -30 c11 -17 28 -34 40 -37 32 -11 83 3 113 31 37 34 20 54
-46 54 l-49 0 0 58 c0 103 -53 138 -88 59 -24 -54 -83 -117 -111 -117 -26 0
-26 -3 0 64 22 60 16 89 -21 101 -27 9 -38 0 -56 -43 -24 -59 -89 -116 -153
-137 -22 -7 -23 -5 -17 19 4 15 20 55 36 88 17 34 30 71 30 83 0 38 -50 69
-75 47 -27 -24 -226 -78 -239 -65 -2 2 15 48 39 101 46 106 101 268 111 331 5
31 2 46 -16 70 -24 35 -36 38 -48 14z"/>
<path d="M11599 5043 c-27 -33 -51 -75 -145 -260 l-93 -183 -20 34 c-25 40
-48 51 -68 34 -20 -16 -13 -130 11 -176 16 -31 16 -37 2 -72 -20 -51 -31 -178
-17 -212 6 -17 18 -28 29 -28 39 0 52 23 69 124 l16 98 30 -6 c16 -3 40 -6 54
-6 25 0 26 -1 43 -67 15 -59 62 -83 162 -83 83 0 109 10 93 36 -10 16 -49 31
-142 54 -72 18 -53 59 27 60 43 1 108 37 130 72 29 47 26 95 -10 151 -16 26
-35 47 -42 47 -27 -1 -125 -77 -162 -127 -30 -42 -45 -53 -66 -53 -47 0 -90
12 -90 25 0 16 178 367 218 429 38 59 39 76 9 104 -22 21 -24 21 -38 5z m108
-529 c-41 -35 -58 -29 -19 7 19 17 37 27 40 24 4 -4 -6 -18 -21 -31z"/>
<path d="M6145 5035 c-240 -31 -289 -35 -320 -29 -24 4 -34 2 -38 -10 -6 -16
7 -109 18 -126 11 -19 5 -251 -10 -385 -9 -77 -20 -219 -25 -315 -6 -144 -5
-180 7 -203 12 -25 18 -28 41 -22 15 4 43 11 62 15 19 4 78 18 130 30 113 27
277 33 328 11 29 -12 35 -12 52 4 30 27 25 60 -12 87 -31 21 -42 23 -173 23
-110 -1 -159 -6 -228 -23 -49 -12 -99 -22 -113 -22 -23 0 -24 3 -24 68 0 96
22 312 32 312 4 0 8 -4 8 -10 0 -14 62 -12 160 5 47 8 115 15 152 15 60 0 69
3 83 24 19 28 9 58 -25 76 -27 14 -110 12 -215 -5 -49 -8 -104 -15 -121 -15
l-31 0 0 175 c0 170 1 176 21 179 49 10 305 36 346 36 51 0 62 6 79 38 11 20
9 26 -19 52 -18 17 -40 29 -49 29 -9 -1 -61 -7 -116 -14z"/>
<path d="M2105 4859 c-35 -33 -74 -77 -88 -97 -13 -21 -32 -50 -43 -66 -21
-31 -67 -109 -85 -142 -12 -24 -49 -44 -78 -44 -33 0 -43 -23 -29 -66 10 -31
19 -40 39 -42 20 -2 28 -10 32 -30 17 -79 86 -129 162 -119 78 11 217 45 228
56 8 8 6 14 -7 24 -12 9 -52 12 -142 10 -151 -4 -166 2 -162 60 3 40 6 44 78
91 136 90 204 174 234 287 15 61 11 90 -15 118 -31 33 -56 25 -124 -40z m45
-109 c-17 -31 -80 -99 -104 -112 -18 -10 -16 -5 8 28 37 49 98 115 104 110 2
-3 -2 -14 -8 -26z"/>
<path d="M6635 4885 c-18 -19 -41 -55 -51 -80 -11 -30 -22 -44 -31 -41 -16 6
-44 -47 -66 -124 -21 -74 -47 -276 -49 -375 -3 -212 116 -359 261 -323 57 14
137 90 176 168 63 125 99 371 76 519 -18 114 -59 190 -132 245 -52 39 -68 46
-106 46 -39 0 -50 -5 -78 -35z m174 -96 c17 -12 41 -43 54 -68 20 -41 22 -61
22 -186 -1 -121 -4 -151 -27 -225 -37 -123 -64 -175 -115 -220 -61 -53 -126
-63 -171 -27 -22 18 -50 80 -57 127 -6 42 19 322 32 356 5 12 8 12 20 -6 22
-31 31 -24 38 28 14 108 38 184 68 219 27 31 35 35 68 30 20 -3 51 -15 68 -28z"/>
<path d="M10176 4780 c-60 -11 -106 -66 -106 -124 0 -57 31 -142 73 -196 18
-24 37 -49 42 -57 22 -30 -63 -46 -100 -19 -17 12 -18 19 -10 53 15 59 9 91
-20 91 -17 0 -27 -10 -40 -39 -30 -65 -6 -146 55 -187 30 -20 44 -23 99 -20
55 4 67 8 88 32 30 35 25 63 -18 121 -75 101 -91 128 -96 160 -5 29 -1 39 26
65 37 38 59 36 86 -7 24 -39 53 -42 83 -10 30 31 28 50 -9 91 -25 29 -86 60
-109 55 -3 -1 -23 -5 -44 -9z"/>
<path d="M8650 4745 c-6 -14 -10 -37 -10 -49 0 -22 4 -24 107 -30 185 -13 334
-42 372 -74 l22 -17 -44 -50 c-24 -27 -73 -67 -109 -88 -89 -52 -125 -86 -133
-125 -10 -52 14 -49 117 12 124 73 238 190 238 243 0 40 -32 103 -59 117 -40
21 -194 53 -306 65 -55 6 -119 14 -143 17 -38 5 -43 3 -52 -21z"/>
<path d="M3289 4650 c-152 -137 -234 -248 -227 -308 3 -26 13 -30 183 -87 99
-33 194 -68 212 -78 39 -21 57 -21 73 -2 10 12 10 24 2 53 -13 41 -3 37 -240
119 l-133 46 25 31 c13 17 30 30 38 29 7 -1 33 -6 58 -10 27 -6 58 -5 76 0 22
7 117 3 305 -13 373 -32 866 -34 937 -4 31 12 33 17 30 51 -4 36 -6 38 -39 37
-19 0 -97 -9 -174 -19 -155 -19 -314 -17 -611 10 -88 8 -185 17 -215 20 -30 3
-90 7 -134 10 -44 3 -96 9 -115 13 l-34 8 61 49 c34 28 64 56 67 62 5 12 -20
83 -29 83 -2 0 -55 -45 -116 -100z"/>
<path d="M10963 4635 c-47 -20 -121 -92 -165 -159 -43 -66 -50 -124 -23 -176
14 -28 20 -30 70 -30 30 0 77 8 103 18 48 19 49 19 61 -1 11 -17 21 -19 75
-15 66 6 170 50 164 70 -6 18 -56 28 -115 24 -57 -4 -61 -1 -38 30 21 27 55
103 55 123 -1 22 -35 61 -53 61 -8 0 -31 16 -50 35 -39 39 -40 39 -84 20z
m-25 -188 c2 -15 10 -27 18 -27 25 0 15 -16 -21 -33 -38 -18 -95 -23 -95 -8 0
17 72 102 83 98 7 -2 13 -16 15 -30z"/>
<path d="M8829 4616 c-2 -2 -150 -6 -329 -10 -179 -4 -352 -9 -385 -11 -33 -3
-103 -7 -155 -10 -52 -2 -124 -7 -160 -10 -36 -3 -150 -10 -255 -16 -279 -15
-296 -18 -308 -52 -20 -62 -5 -66 181 -42 218 27 615 47 1036 51 321 3 422 7
428 17 17 27 -30 103 -53 83z"/>
<path d="M12035 4603 c-65 -26 -176 -103 -196 -137 -27 -45 -25 -101 6 -131
19 -19 35 -25 71 -25 38 0 45 -3 40 -16 -10 -25 -46 -171 -57 -227 -23 -125
-71 -241 -113 -276 -26 -22 -67 -16 -93 13 -27 32 -30 84 -9 164 25 94 51 119
134 129 26 3 56 11 66 19 18 13 18 14 -5 33 -19 16 -39 20 -97 21 -98 0 -123
-17 -153 -108 -13 -37 -24 -69 -24 -72 -1 -3 -5 -20 -9 -38 -13 -54 11 -157
48 -205 69 -91 136 -98 211 -23 51 52 75 111 115 289 40 179 76 280 139 387 5
8 14 26 20 40 6 14 19 37 28 51 20 31 13 64 -22 102 -29 31 -44 32 -100 10z
m-6 -119 c-15 -18 -69 -47 -76 -41 -4 4 75 57 86 57 2 0 -2 -7 -10 -16z"/>
<path d="M12248 4573 c-21 -25 -88 -138 -117 -198 -18 -36 -25 -68 -25 -112
-1 -93 33 -119 122 -94 17 5 32 7 32 3 0 -3 -30 -50 -67 -104 -38 -54 -77
-113 -88 -132 -11 -19 -38 -65 -61 -103 -53 -90 -64 -123 -64 -197 0 -64 18
-106 45 -106 14 0 17 12 29 104 10 73 99 222 304 510 l92 128 0 92 -1 91 -24
-47 c-13 -25 -41 -59 -60 -76 -38 -31 -169 -81 -181 -69 -9 9 13 61 59 137 89
146 82 125 57 160 -25 35 -31 36 -52 13z"/>
<path d="M6918 3909 c-10 -5 -18 -16 -18 -24 0 -21 59 -101 84 -115 11 -6 73
-81 136 -167 209 -283 306 -406 465 -593 258 -304 264 -310 290 -310 13 0 27
5 30 10 13 20 25 9 25 -23 0 -59 0 -59 -144 31 l-88 55 -34 -18 c-20 -10 -34
-26 -34 -37 0 -22 34 -58 56 -58 9 0 54 -23 100 -51 126 -76 192 -79 221 -11
28 67 -3 318 -44 349 -12 10 -22 9 -44 -3 -33 -17 -35 -29 -14 -98 8 -27 15
-54 15 -59 0 -20 -42 23 -177 178 -213 246 -330 391 -528 650 -237 310 -249
322 -297 294z"/>
<path d="M5904 3805 c5 -45 2 -63 -14 -95 -26 -52 -25 -74 5 -94 l24 -16 -4
-632 c-3 -348 -1 -649 3 -668 6 -26 16 -39 40 -49 34 -15 34 -18 10 -81 -10
-24 -11 -24 -30 20 -66 152 -93 181 -169 184 -72 2 -79 -23 -16 -60 49 -30 79
-78 122 -194 31 -83 58 -120 88 -120 36 0 57 32 88 134 17 56 46 150 64 210
39 125 36 149 -17 144 -29 -3 -33 -8 -57 -78 l-25 -75 -9 60 c-5 33 -9 330 -8
660 1 330 -1 641 -5 691 -5 85 -8 92 -30 103 -14 6 -34 11 -46 11 -19 0 -20
-4 -14 -55z"/>
<path d="M5104 3748 c-31 -51 -86 -138 -122 -192 -117 -179 -204 -329 -290
-496 -47 -91 -87 -167 -89 -169 -2 -3 -1 27 3 66 8 90 1 119 -36 138 -46 24
-50 20 -50 -50 0 -36 -5 -109 -11 -161 -10 -89 -9 -98 11 -140 26 -52 51 -62
105 -40 96 40 280 207 311 282 15 35 14 39 -3 62 -28 37 -40 37 -59 0 -18 -35
-118 -144 -146 -159 -16 -9 -16 -6 -4 28 17 49 107 228 159 318 67 116 227
365 289 450 32 43 58 84 58 90 0 11 -33 45 -57 59 -7 4 -33 -29 -69 -86z
m-496 -880 c0 -7 3 -23 7 -34 5 -15 2 -23 -9 -27 -13 -5 -16 1 -16 27 0 18 3
36 7 39 9 9 10 9 11 -5z"/>
<path d="M9665 3308 c-2 -7 -27 -85 -56 -173 -29 -88 -56 -165 -60 -171 -5 -6
-39 -19 -76 -28 -38 -9 -81 -20 -98 -25 -26 -6 -30 -11 -28 -40 0 -19 8 -40
17 -49 14 -14 21 -14 73 1 32 8 59 14 61 12 2 -2 -7 -43 -21 -92 -36 -125 -41
-173 -27 -248 9 -46 19 -70 34 -81 19 -14 23 -13 44 11 28 33 30 95 4 119 -24
21 -18 65 29 211 28 89 38 109 59 117 33 13 150 34 233 43 37 4 69 11 72 15 7
12 -41 40 -69 40 -14 0 -28 5 -31 11 -5 7 -37 8 -98 3 -86 -6 -90 -6 -82 12
22 54 85 250 85 264 0 16 -39 60 -53 60 -4 0 -9 -6 -12 -12z"/>
<path d="M2785 3222 c-5 -4 -11 -16 -12 -27 -14 -118 -57 -244 -132 -385 -10
-19 -34 -71 -51 -115 -18 -44 -36 -84 -40 -90 -4 -5 -10 -22 -14 -38 -5 -22
-11 -26 -29 -22 -13 4 -36 1 -51 -5 -16 -6 -31 -8 -34 -6 -7 8 48 98 84 136
49 52 58 83 33 114 -13 17 -30 26 -47 26 -23 -1 -35 -14 -86 -95 -32 -52 -67
-122 -77 -156 l-19 -60 23 -47 c28 -59 52 -64 116 -24 l48 29 16 -38 c29 -67
70 -47 102 48 9 29 37 81 62 115 55 75 61 69 63 -67 2 -133 27 -187 72 -153
15 11 18 33 20 133 2 108 0 125 -21 168 -22 46 -23 49 -6 67 19 21 41 28 30
10 -11 -17 5 -50 25 -50 36 0 150 143 150 188 0 27 -45 72 -72 72 -11 0 -62
-36 -114 -80 -52 -45 -94 -78 -94 -75 0 3 20 45 44 93 103 206 119 284 67 321
-31 23 -40 25 -56 13z"/>
<path d="M3280 3160 c-11 -11 -20 -25 -20 -31 0 -6 -15 -34 -33 -62 -47 -72
-148 -249 -186 -325 -97 -192 -110 -297 -48 -386 18 -26 24 -28 65 -23 30 3
63 18 104 46 l60 41 28 -30 c33 -36 47 -37 102 -9 l42 21 25 -30 c34 -39 65
-45 120 -23 25 10 64 24 87 30 49 13 75 51 56 82 -10 16 -9 25 3 50 9 17 15
40 13 51 -4 26 -51 63 -72 55 -8 -3 -31 -38 -51 -76 -24 -48 -44 -75 -64 -86
-42 -21 -46 -6 -16 68 28 70 26 88 -10 111 -43 28 -61 21 -81 -34 -10 -27 -33
-64 -51 -82 -38 -36 -44 -21 -13 30 11 18 20 41 20 50 0 22 -55 64 -77 60 -9
-2 -29 -28 -45 -59 -30 -63 -67 -98 -139 -135 -54 -27 -54 -27 -49 41 2 37 49
156 91 232 68 122 160 272 194 317 42 55 44 78 9 105 -33 26 -39 26 -64 1z"/>
<path d="M11089 3138 c-5 -103 -9 -130 -23 -157 -15 -27 -22 -31 -59 -31 -23
0 -53 -6 -67 -13 -21 -10 -24 -19 -22 -47 5 -49 17 -60 58 -53 19 3 34 2 34
-2 0 -5 -23 -58 -52 -119 -30 -66 -53 -130 -56 -159 -4 -43 -7 -47 -31 -47
-14 0 -45 -1 -68 -3 -24 -3 -43 -2 -43 0 0 3 30 37 66 76 59 64 65 74 59 102
-9 40 -13 67 -22 150 -9 75 -25 107 -70 136 -37 25 -68 24 -93 -3 -24 -26 -27
-80 -5 -98 13 -11 20 -11 40 0 26 14 55 8 55 -12 -1 -7 -26 -29 -56 -48 -57
-36 -144 -128 -165 -174 -12 -26 -24 -27 -78 -10 -21 7 -8 68 34 159 20 44 45
101 55 126 11 26 28 66 38 90 34 75 34 78 5 105 -28 26 -41 27 -55 3 -8 -14
-92 -211 -109 -258 l-9 -24 -36 37 c-19 20 -43 36 -52 36 -45 0 -179 -172
-216 -276 -22 -64 -2 -145 43 -168 21 -12 33 -12 63 -1 44 15 110 65 139 107
l22 30 21 -25 c29 -34 61 -49 91 -41 20 5 26 1 34 -19 11 -27 29 -37 71 -37
23 0 30 -6 39 -33 7 -19 22 -40 35 -47 21 -11 32 -8 87 20 35 17 74 41 87 53
19 18 26 19 43 9 16 -10 34 -8 110 18 49 16 103 37 119 45 38 20 40 19 40 -10
0 -14 13 -39 29 -57 28 -32 32 -33 103 -33 40 0 85 3 99 7 22 6 28 3 38 -18
13 -30 22 -29 141 17 157 61 176 94 54 94 -53 0 -63 3 -58 15 4 8 10 33 15 55
4 22 13 55 18 73 10 33 -2 82 -20 82 -4 0 -29 22 -57 50 -55 55 -85 70 -138
70 -73 0 -115 -44 -100 -105 7 -27 34 -33 54 -13 17 17 100 14 118 -4 13 -13
14 -20 3 -39 -24 -45 -62 -70 -153 -98 -84 -26 -131 -27 -162 -2 -24 19 -25
19 -95 -6 -39 -13 -73 -22 -76 -19 -3 2 21 62 54 132 l58 127 88 -6 c74 -5 89
-3 94 10 3 9 2 23 -4 32 -13 21 -92 61 -122 61 -25 0 -25 7 -5 125 4 22 -1 38
-16 58 -27 34 -60 36 -61 5z m-709 -359 c0 -19 -40 -79 -60 -89 -10 -6 -26
-10 -36 -10 -13 0 -11 7 11 38 43 58 85 88 85 61z m310 -159 c0 -11 -4 -20 -9
-20 -5 0 -17 -3 -26 -7 -16 -6 -16 -4 0 20 21 32 35 35 35 7z m-444 -48 c-25
-25 -36 -10 -19 28 15 35 15 35 24 11 7 -18 6 -28 -5 -39z"/>
<path d="M1662 3024 c-18 -70 -42 -147 -54 -173 -36 -78 -106 -268 -133 -361
-24 -83 -25 -91 -11 -119 9 -16 20 -32 26 -36 20 -12 49 17 81 80 19 36 36 65
39 65 3 0 12 -16 19 -35 20 -58 83 -80 141 -50 44 23 68 61 96 152 45 143 27
225 -60 270 -40 21 -66 11 -119 -46 -26 -28 -47 -49 -47 -47 0 1 11 29 24 62
51 126 105 295 99 312 -7 19 -43 51 -58 52 -6 0 -25 -57 -43 -126z m133 -351
c-11 -96 -33 -160 -62 -183 -27 -21 -27 -21 -43 -1 -8 11 -25 24 -37 28 -22 8
-22 9 18 78 44 76 95 135 117 135 11 0 12 -12 7 -57z"/>
<path d="M3595 3018 c9 -54 30 -74 59 -54 31 20 31 50 0 75 -15 11 -35 21 -46
21 -18 0 -19 -5 -13 -42z"/>
<path d="M3941 2999 c-6 -28 -25 -83 -43 -123 -40 -92 -176 -386 -188 -408
-10 -19 5 -86 25 -106 11 -12 17 -11 40 4 32 21 55 69 55 117 0 18 7 42 15 53
14 18 18 15 92 -63 43 -46 83 -83 90 -83 7 0 24 5 38 12 36 16 35 62 -2 85
-39 23 -103 85 -103 98 0 6 61 58 137 115 144 111 228 190 236 221 7 26 -38
79 -67 79 -14 0 -27 -9 -33 -22 -20 -42 -84 -108 -187 -192 -55 -45 -107 -86
-114 -90 -12 -7 6 38 39 97 16 29 69 180 69 197 0 23 -42 60 -67 60 -18 0 -23
-9 -32 -51z"/>
<path d="M8584 2883 c-3 -16 -30 -104 -61 -196 -53 -161 -57 -190 -34 -226 18
-28 51 3 130 123 45 68 95 136 111 151 l29 28 -47 -142 c-44 -134 -46 -143
-31 -169 25 -46 47 -34 118 64 90 124 114 153 106 130 -3 -11 -8 -45 -12 -76
-6 -65 15 -120 46 -120 22 0 31 19 31 65 0 18 14 85 30 148 17 64 30 125 30
136 0 11 -14 30 -32 42 l-31 23 -64 -70 c-58 -62 -64 -66 -58 -39 14 76 15 87
5 105 -6 11 -22 28 -36 37 -26 16 -26 16 -80 -43 -29 -32 -59 -75 -65 -94 -12
-35 -25 -50 -45 -50 -7 0 -4 19 7 53 26 75 24 111 -6 131 -32 21 -34 21 -41
-11z"/>
<path d="M9807 2867 c-21 -7 -49 -22 -62 -35 -20 -19 -22 -27 -15 -53 17 -57
52 -79 65 -39 7 23 66 43 110 38 l30 -3 -45 -42 c-39 -38 -146 -98 -207 -117
-27 -9 -37 -36 -28 -84 16 -92 92 -117 206 -66 54 24 59 25 81 10 40 -28 108
-16 108 19 0 16 -35 55 -48 55 -6 0 7 31 29 68 65 113 63 176 -7 201 -19 7
-34 16 -34 21 0 15 -68 40 -107 39 -21 0 -55 -6 -76 -12z m83 -271 c0 -2 -7
-7 -16 -10 -8 -3 -12 -2 -9 4 6 10 25 14 25 6z"/>
<path d="M9245 2827 c-36 -26 -48 -41 -98 -121 -48 -78 -60 -120 -46 -171 28
-104 110 -123 254 -60 61 27 76 48 52 72 -15 15 -25 15 -115 2 -54 -8 -104
-13 -110 -11 -26 8 -9 30 31 40 89 23 167 108 167 182 0 38 -47 90 -82 90 -13
0 -36 -10 -53 -23z"/>
<path d="M2046 2747 c-51 -56 -107 -164 -114 -222 -5 -46 16 -98 47 -114 22
-12 61 -2 113 29 33 19 39 20 44 6 12 -31 63 -19 105 23 35 35 51 71 32 71 -5
0 -15 4 -23 10 -12 7 -12 11 3 28 10 11 19 32 20 48 2 22 -5 32 -30 48 -19 12
-32 30 -33 42 0 29 -41 64 -84 71 -34 5 -40 2 -80 -40z"/>
<path d="M4344 2749 c-76 -37 -99 -75 -95 -157 1 -12 20 -43 42 -67 36 -39 39
-45 21 -45 -12 0 -23 4 -26 9 -3 5 -17 11 -31 13 -21 5 -25 2 -25 -19 0 -42
29 -89 66 -106 30 -15 39 -15 67 -3 49 20 67 43 67 85 0 26 -8 46 -30 71 -16
19 -29 40 -30 47 0 6 27 33 59 60 33 26 60 55 60 64 1 23 -40 58 -74 64 -19 3
-45 -3 -71 -16z"/>
<path d="M5686 1718 c-16 -29 -53 -98 -84 -152 -51 -90 -57 -97 -65 -75 -15
42 -65 74 -119 74 -43 0 -51 -4 -98 -50 -71 -70 -111 -154 -112 -236 -1 -72
17 -119 57 -145 35 -23 71 -11 153 51 l72 55 19 -39 c14 -27 32 -43 58 -54 35
-14 42 -13 89 4 46 17 54 18 85 5 42 -17 112 -7 206 31 114 46 55 79 -94 53
-43 -7 -69 -7 -81 -1 -15 9 -14 10 6 11 77 1 232 135 232 201 0 29 -47 79 -73
79 -80 0 -257 -183 -259 -269 -1 -16 -4 -29 -7 -29 -3 1 -24 -2 -45 -7 -33 -6
-42 -5 -53 11 -20 27 -8 80 32 134 39 53 175 325 175 349 0 13 -46 51 -62 51
-2 0 -17 -24 -32 -52z m-212 -236 c13 -22 -9 -86 -40 -118 -22 -21 -33 -41
-31 -56 1 -17 -10 -30 -47 -55 -68 -47 -80 -44 -74 15 6 64 43 135 95 183 40
37 84 51 97 31z"/>
<path d="M6653 1704 c-17 -44 19 -144 52 -144 30 0 38 28 21 76 -24 71 -59
104 -73 68z"/>
<path d="M6253 1560 c-52 -31 -65 -61 -65 -140 1 -66 -1 -71 -26 -84 -31 -16
-74 -61 -91 -92 -16 -32 12 -117 47 -144 69 -55 213 24 212 117 -1 15 -7 39
-15 53 -8 14 -14 28 -15 32 -1 20 203 38 215 18 3 -5 -10 -52 -30 -103 -37
-100 -41 -129 -25 -172 14 -36 37 -29 78 25 28 36 33 50 29 77 -4 20 2 56 14
90 26 77 24 98 -15 140 -30 33 -39 37 -92 41 -52 3 -154 -13 -206 -33 -14 -6
-18 -2 -18 18 0 14 3 33 6 42 9 22 56 45 93 45 25 0 30 -5 36 -30 7 -34 29
-39 45 -11 17 33 11 58 -24 95 -28 31 -40 36 -77 36 -26 0 -57 -8 -76 -20z m7
-326 c0 -14 -12 -32 -33 -48 -36 -28 -66 -33 -85 -14 -16 16 1 43 50 78 45 33
68 28 68 -16z"/>
<path d="M7301 1460 c-109 -74 -216 -162 -225 -186 -8 -21 14 -74 31 -74 9 0
45 28 81 61 71 67 182 152 189 145 2 -2 -15 -42 -38 -87 -44 -87 -52 -140 -25
-168 18 -17 29 -10 103 59 32 30 69 64 82 75 l24 20 -12 -22 c-12 -23 -15
-101 -5 -128 19 -48 92 -50 243 -5 126 37 80 76 -76 65 -67 -4 -93 -3 -93 5 0
6 18 42 40 80 46 78 57 118 41 148 -25 46 -82 30 -163 -46 l-27 -25 6 54 c4
46 2 57 -16 77 -12 12 -29 22 -39 22 -9 0 -64 -32 -121 -70z"/>
<path d="M6910 1501 c-19 -11 -54 -36 -78 -56 -132 -114 -98 -279 51 -245 20
4 37 5 37 1 0 -11 -57 -161 -108 -286 -27 -66 -60 -150 -73 -187 -13 -38 -27
-68 -31 -68 -16 0 -8 81 13 136 20 52 20 57 5 73 -16 15 -19 14 -46 -16 -59
-65 -64 -163 -13 -261 49 -97 86 -69 144 106 59 180 211 544 237 566 74 64 68
177 -13 226 -47 28 -86 32 -125 11z m130 -71 c0 -5 -7 -10 -15 -10 -8 0 -17
-11 -21 -25 -10 -38 -25 -45 -66 -28 -44 18 -41 28 16 54 45 20 86 25 86 9z
m-176 -125 c19 -14 18 -15 -12 -15 -30 0 -40 9 -25 23 9 10 15 8 37 -8z"/>
<path d="M7 233 c-11 -11 -8 -233 3 -233 6 0 10 47 10 120 0 66 -1 120 -3 120
-2 0 -7 -3 -10 -7z"/>
</g>
</svg>
