<?xml version="1.0" standalone="no"?>
<!DOCTYPE svg PUBLIC "-//W3C//DTD SVG 20010904//EN"
 "http://www.w3.org/TR/2001/REC-SVG-20010904/DTD/svg10.dtd">
<svg version="1.0" xmlns="http://www.w3.org/2000/svg"
 width="1280.000000pt" height="765.000000pt" viewBox="0 0 1280.000000 765.000000"
 preserveAspectRatio="xMidYMid meet">
<metadata>
Created by potrace 1.15, written by Peter Selinger 2001-2017
</metadata>
<g transform="translate(0.000000,765.000000) scale(0.100000,-0.100000)"
fill="#c9a61a" stroke="none">
<path d="M1040 7632 c0 -11 9 -30 19 -43 18 -24 18 -25 0 -47 -26 -33 -33
-102 -19 -189 6 -41 10 -77 7 -79 -8 -9 -388 -34 -514 -34 l-133 0 -6 -26 c-4
-17 -2 -29 7 -34 31 -20 185 -21 412 -5 130 10 243 15 252 11 12 -4 15 -25 15
-101 0 -78 3 -95 15 -95 18 0 18 1 0 -44 -10 -24 -12 -36 -4 -36 7 0 9 -9 5
-25 -6 -24 -4 -25 34 -25 41 0 49 -7 28 -28 -41 -41 71 -9 124 36 17 14 64 77
105 139 73 111 91 129 156 162 18 9 33 24 35 34 6 31 -151 174 -323 294 -88
62 -172 122 -187 134 -27 20 -28 20 -28 1z m128 -155 l23 -25 -48 5 c-26 3
-49 7 -51 8 -1 1 3 14 9 28 13 29 28 26 67 -16z m22 -127 c0 -5 -2 -10 -4 -10
-3 0 -8 5 -11 10 -3 6 -1 10 4 10 6 0 11 -4 11 -10z m81 -63 c-9 -9 -14 -8
-21 3 -16 24 -11 31 11 19 16 -8 18 -14 10 -22z m179 -112 c0 -2 -13 -11 -30
-20 -26 -13 -30 -13 -30 -1 0 8 6 17 13 19 16 7 47 8 47 2z"/>
<path d="M6172 7633 c-9 -23 -9 -320 1 -354 7 -28 34 -35 41 -10 3 9 6 94 8
189 2 143 0 175 -12 182 -22 14 -30 12 -38 -7z"/>
<path d="M12260 7584 c-384 -49 -875 -63 -1440 -41 -217 9 -519 19 -671 23
l-277 7 -12 -23 c-8 -14 -10 -42 -7 -70 3 -26 -3 -227 -14 -446 -11 -220 -23
-603 -26 -851 l-6 -453 373 0 373 0 -7 -84 c-4 -47 -15 -115 -24 -152 l-17
-68 -50 -15 c-45 -14 -51 -20 -59 -53 -6 -24 -6 -52 0 -75 8 -34 12 -38 39
-37 17 1 336 -2 710 -6 725 -8 747 -7 753 37 4 26 -33 83 -53 83 -7 0 -16 7
-19 16 -6 15 -19 16 -99 11 l-92 -6 1 137 c0 75 1 147 2 160 2 22 4 22 130 22
70 0 190 -7 267 -15 145 -15 313 -19 353 -9 64 18 74 142 43 569 -34 476 -43
683 -44 1028 -1 212 -5 327 -12 326 -5 -1 -57 -8 -115 -15z m47 -356 c0 -172
8 -434 17 -583 17 -291 31 -548 41 -769 l7 -139 -389 6 c-213 4 -586 14 -828
22 -242 8 -631 17 -864 21 l-424 7 6 361 c5 306 20 647 52 1210 5 77 4 106 -4
102 -16 -10 -14 9 2 23 10 7 162 5 558 -9 809 -29 1161 -26 1534 16 111 12
241 32 286 43 3 0 5 -140 6 -311z m-1197 -1513 c168 -8 346 -18 395 -21 l90
-5 -3 -155 -3 -154 -57 0 c-31 0 -169 5 -307 10 -137 5 -339 10 -447 12 l-198
2 0 26 c0 14 7 70 15 125 8 55 15 120 15 144 l0 44 98 -6 c53 -4 234 -14 402
-22z m-41 -371 c218 -11 409 -14 544 -10 l208 6 -3 -28 -3 -27 -205 -2 c-113
-2 -416 1 -675 5 l-470 7 -3 33 -3 32 137 0 c75 0 288 -7 473 -16z"/>
<path d="M10880 7297 c0 -14 16 -39 41 -62 63 -61 64 -66 24 -124 -40 -58 -59
-101 -46 -101 24 0 98 70 119 112 l24 47 -24 43 c-23 43 -98 108 -124 108 -8
0 -14 -10 -14 -23z"/>
<path d="M10028 7285 c-56 -31 -59 -113 -6 -222 35 -71 68 -106 91 -97 14 5 8
22 -38 110 -30 57 -55 110 -55 117 0 7 16 28 35 47 19 19 35 40 35 47 0 17
-28 16 -62 -2z"/>
<path d="M10687 7254 c-10 -35 -19 -182 -12 -203 5 -17 15 -21 49 -21 54 0
106 18 106 36 0 10 -15 14 -56 14 l-55 0 3 33 c3 29 6 32 45 38 24 3 46 9 50
13 11 11 -18 26 -53 26 -28 0 -44 14 -44 36 0 3 22 2 49 -2 28 -4 57 -2 67 4
17 10 16 12 -11 22 -16 7 -53 14 -81 17 -45 5 -53 3 -57 -13z"/>
<path d="M10136 7220 c-27 -32 -42 -103 -31 -142 20 -68 61 -86 106 -48 l24
19 -31 1 c-40 0 -68 31 -68 75 0 44 35 82 82 91 33 6 34 8 17 20 -32 23 -71
17 -99 -16z"/>
<path d="M10353 7227 c-49 -22 -70 -130 -33 -167 50 -50 120 1 120 89 0 52
-49 96 -87 78z m35 -89 c3 -30 -1 -37 -19 -43 -25 -8 -39 8 -39 46 0 32 8 41
35 37 15 -2 21 -12 23 -40z"/>
<path d="M10483 7223 c-10 -24 -10 -122 0 -155 7 -25 12 -28 50 -28 49 1 72
15 87 55 14 38 -3 87 -41 120 -36 30 -86 34 -96 8z m78 -52 c35 -35 37 -55 7
-75 -31 -22 -36 -20 -42 14 -3 17 -9 44 -12 60 -7 39 9 39 47 1z"/>
<path d="M11109 7224 c-12 -15 -32 -212 -22 -224 9 -11 39 20 50 51 17 50 17
189 -1 189 -7 0 -20 -7 -27 -16z"/>
<path d="M4514 6831 c31 -59 108 -131 211 -197 28 -18 28 -17 -14 43 -67 96
-110 142 -152 163 -53 27 -62 26 -45 -9z"/>
<path d="M7893 6593 c-60 -33 -122 -93 -210 -204 -48 -61 -90 -115 -91 -120
-2 -6 6 -5 21 0 18 7 27 7 29 -1 2 -6 33 15 68 46 36 31 113 97 172 147 59 50
110 100 114 111 12 39 -47 51 -103 21z"/>
<path d="M6050 6470 c-225 -81 -389 -356 -407 -680 -9 -177 28 -339 105 -449
44 -63 48 -74 62 -222 15 -155 31 -199 97 -271 43 -47 53 -65 49 -81 -31 -104
-30 -118 4 -231 22 -74 31 -119 27 -143 -6 -34 -5 -35 46 -58 139 -63 328 -55
397 16 20 22 21 31 16 98 -5 56 -1 91 15 155 16 61 19 96 14 141 -14 129 -14
128 26 147 60 28 85 67 109 170 28 123 38 148 109 264 91 146 103 185 109 336
5 147 -6 224 -50 345 -58 160 -200 338 -331 413 -122 70 -283 90 -397 50z
m309 -91 c250 -86 412 -369 399 -698 -6 -132 -19 -176 -97 -306 -73 -122 -90
-159 -112 -247 -26 -102 -42 -134 -79 -153 -31 -16 -63 -18 -122 -9 l-38 7 0
76 c0 100 11 162 62 358 41 153 44 163 70 168 33 8 40 26 27 65 -7 19 -18 30
-30 30 -13 0 -25 12 -35 35 -17 41 -22 43 -33 13 -8 -22 -9 -21 -31 15 -24 41
-39 43 -57 7 l-11 -23 -20 32 c-17 29 -20 30 -33 15 -9 -11 -14 -40 -14 -76 1
-54 -1 -58 -23 -58 -54 0 -77 23 -160 159 -19 32 -32 12 -32 -51 0 -26 -4 -49
-8 -52 -13 -8 -47 27 -73 74 -12 22 -26 40 -30 40 -12 0 18 -113 80 -305 69
-212 90 -308 93 -430 3 -101 8 -96 -79 -82 -54 9 -58 -10 -10 -58 47 -47 116
-59 295 -52 l142 6 0 -24 c0 -13 7 -40 16 -59 29 -60 20 -66 -109 -66 -63 0
-116 -3 -120 -6 -13 -13 15 -62 41 -70 l27 -7 -30 -8 c-16 -5 -51 -11 -77 -14
-54 -7 -59 -17 -22 -42 18 -12 64 -20 148 -28 120 -10 121 -10 124 -36 4 -34
-13 -39 -140 -39 -53 0 -99 -3 -101 -8 -3 -4 -3 -20 0 -35 4 -21 13 -29 34
-34 43 -8 50 -27 8 -20 -19 3 -53 9 -77 12 -28 5 -45 13 -48 23 -3 10 -20 47
-39 83 -38 73 -43 113 -19 147 13 19 14 35 5 110 -6 48 -11 90 -11 93 0 4 -14
12 -30 19 -74 31 -106 109 -119 290 -9 140 -14 154 -89 247 -57 70 -68 99 -77
199 -14 147 26 358 95 499 122 251 336 354 569 274z m-241 -788 c26 -21 57
-42 68 -45 30 -9 71 9 101 44 24 29 56 39 68 21 3 -6 -13 -83 -35 -172 -47
-193 -64 -309 -58 -400 3 -41 1 -72 -5 -78 -12 -12 -63 -14 -119 -5 l-38 7 0
56 c0 122 -39 309 -105 500 -29 85 -30 92 -12 85 7 -2 21 2 32 10 31 24 53 19
103 -23z m300 -942 c-2 -6 -7 -10 -11 -10 -4 1 -15 1 -24 1 -15 0 -16 2 -3 10
20 13 43 13 38 -1z"/>
<path d="M1044 6431 c-42 -18 -64 -60 -64 -119 l0 -55 -142 9 c-215 14 -425
11 -481 -5 -29 -8 -44 -18 -39 -23 27 -27 127 -39 380 -47 188 -5 266 -11 275
-20 8 -8 11 -44 10 -112 l-2 -99 36 15 c45 19 53 13 53 -36 0 -27 -4 -39 -14
-39 -17 0 -46 -37 -46 -58 0 -36 159 39 324 152 68 47 152 99 187 116 47 22
58 31 45 36 -21 8 -84 -10 -148 -42 l-46 -23 -7 26 c-3 14 -2 30 3 35 15 15
81 28 145 28 63 0 91 10 107 39 8 17 3 21 -43 36 -28 9 -94 39 -145 66 -51 28
-123 58 -160 68 -37 9 -81 24 -98 34 -40 21 -103 29 -130 18z m135 -438 c10
-21 9 -28 -1 -34 -23 -15 -28 -10 -28 26 0 42 12 45 29 8z"/>
<path d="M1022 5470 c-63 -46 -64 -60 -11 -228 16 -51 29 -103 29 -117 0 -23
-4 -25 -44 -25 -24 0 -81 7 -127 16 -101 19 -205 22 -221 6 -22 -22 3 -65 53
-90 39 -19 73 -25 205 -33 87 -5 160 -11 162 -13 2 -2 12 -48 23 -102 20 -93
21 -172 3 -218 -4 -11 -1 -16 11 -16 15 0 17 -7 12 -43 -3 -24 -9 -51 -13 -60
-8 -23 8 -21 39 3 16 13 34 45 48 88 23 71 36 95 49 87 4 -3 20 11 35 30 14
20 74 72 131 117 126 97 156 137 162 218 l4 58 -44 30 c-24 17 -100 75 -169
129 -136 107 -205 154 -261 177 -35 15 -37 15 -76 -14z m160 -297 c22 -30 39
-55 36 -58 -2 -2 -18 4 -36 15 -33 20 -75 78 -87 120 l-7 25 26 -25 c15 -13
45 -48 68 -77z m156 -10 c41 -37 44 -42 24 -43 -33 0 -69 26 -104 78 l-31 45
32 -19 c18 -10 53 -38 79 -61z m73 -174 c-26 -21 -37 -19 -28 6 4 8 17 15 29
15 l23 -1 -24 -20z m-71 -43 c-1 -6 -10 0 -20 13 -11 13 -20 28 -20 35 1 6 10
0 20 -13 11 -13 20 -28 20 -35z m-94 -31 c14 -28 12 -27 -21 9 -19 22 -35 44
-35 49 0 17 41 -26 56 -58z"/>
<path d="M4482 5485 c-51 -7 -95 -15 -98 -18 -12 -11 59 -46 108 -52 28 -4 79
-4 114 0 59 6 64 9 64 30 0 45 -57 57 -188 40z"/>
<path d="M7600 5165 c0 -30 57 -72 182 -134 121 -61 180 -75 191 -47 9 23 -33
53 -174 122 -147 72 -199 88 -199 59z"/>
<path d="M9632 5117 c-27 -29 -28 -47 -3 -47 14 0 18 -5 14 -20 -8 -32 -49
-58 -103 -65 -55 -8 -59 -25 -6 -25 18 0 35 -3 38 -6 8 -8 -37 -86 -69 -120
-15 -16 -33 -51 -40 -77 -14 -51 -54 -116 -97 -156 -14 -14 -26 -28 -26 -33 0
-4 127 -8 283 -8 446 -1 1150 -18 1394 -35 166 -12 238 -13 280 -5 84 15 136
13 331 -16 170 -24 183 -25 342 -13 183 13 236 9 245 -21 4 -11 10 -20 15 -20
4 0 10 -9 13 -21 10 -37 32 -16 29 26 l-4 38 94 -7 c233 -16 384 -19 406 -7
30 16 37 52 17 91 -9 18 -115 135 -236 260 -127 132 -215 231 -209 235 26 16
0 27 -68 28 -46 1 -76 7 -81 15 -6 10 -16 9 -52 -3 -30 -11 -107 -19 -239 -25
-107 -5 -244 -17 -305 -26 -75 -11 -183 -16 -340 -16 -243 0 -322 5 -745 52
-382 42 -484 50 -681 50 -171 0 -176 -1 -197 -23z m378 -51 c0 -31 -41 -64
-91 -75 -56 -12 -249 -4 -249 11 0 5 7 22 15 38 17 32 28 34 228 38 76 2 97
-1 97 -12z m203 5 c26 -4 50 -11 54 -15 4 -3 -1 -22 -10 -41 l-17 -35 -110 0
c-118 0 -125 4 -99 51 22 42 86 56 182 40z m240 -38 c88 -17 98 -24 74 -58
-12 -16 -25 -17 -116 -13 -56 3 -106 9 -110 14 -14 14 6 53 31 64 31 12 22 12
121 -7z m1707 -4 c35 -5 86 -22 113 -37 47 -25 137 -114 137 -134 0 -12 -237
-5 -277 7 -43 13 -12 25 65 25 88 0 125 14 65 23 -21 4 -50 7 -65 7 -60 0
-132 23 -160 50 -39 40 -36 58 10 63 20 2 39 4 42 5 3 1 34 -3 70 -9z m-210
-20 c0 -14 5 -19 14 -16 15 6 39 -16 50 -47 6 -17 -4 -18 -206 -17 -117 1
-291 -1 -385 -5 l-173 -6 -10 27 c-5 14 -10 30 -10 34 0 4 53 8 118 9 64 1
187 10 272 21 85 10 194 19 243 20 82 1 87 0 87 -20z m-1147 -16 c98 -15 108
-19 114 -40 3 -13 4 -26 1 -28 -2 -2 -53 -6 -113 -9 -68 -3 -96 -2 -72 3 43 9
52 15 42 30 -4 7 -45 11 -101 11 -52 0 -94 4 -94 9 0 5 7 17 16 25 20 21 72
20 207 -1z m389 -38 l-4 -35 -103 0 c-98 0 -103 1 -109 23 -3 12 -6 25 -6 29
0 4 35 9 78 11 42 1 93 4 112 5 35 2 36 1 32 -33z m-1265 -19 c3 -2 2 -9 -2
-15 -4 -7 -58 -11 -147 -11 -140 0 -141 0 -123 -20 10 -11 14 -20 9 -20 -5 0
0 -7 10 -15 14 -11 47 -15 113 -15 51 0 93 -2 93 -5 0 -2 -8 -20 -17 -40 -12
-25 -23 -35 -40 -35 -27 0 -29 -8 -7 -25 14 -10 14 -14 3 -33 -13 -20 -19 -21
-81 -15 -83 7 -91 -8 -17 -32 47 -16 50 -18 35 -34 -14 -13 -39 -16 -152 -14
-75 1 -138 4 -141 6 -2 3 9 23 25 46 16 22 35 54 42 71 l13 32 81 -7 c73 -6
84 -5 106 14 36 30 12 42 -82 39 -42 -2 -80 0 -83 4 -10 10 13 73 35 93 37 33
99 45 214 41 59 -3 110 -7 113 -10z m281 -11 c14 -14 -19 -20 -109 -19 -101 1
-125 7 -99 25 15 10 198 5 208 -6z m242 -15 c21 -7 19 -8 -15 -8 -22 0 -67 4
-100 8 l-60 7 75 1 c41 0 86 -4 100 -8z m1579 -29 c21 -12 22 -15 8 -23 -10
-5 -87 -12 -173 -15 -145 -6 -158 -5 -170 12 -8 10 -14 22 -14 26 0 20 313 20
349 0z m-829 -16 l0 -25 -114 0 -113 0 5 25 c4 25 5 25 113 25 l109 0 0 -25z
m435 4 c4 -11 5 -22 3 -24 -8 -8 -316 -18 -351 -11 -31 6 -37 11 -37 31 l0 25
189 0 c183 0 190 -1 196 -21z m-715 -9 c0 -17 -6 -20 -42 -19 -70 1 -210 23
-202 32 4 4 61 7 126 7 111 0 118 -1 118 -20z m-730 -20 c0 -6 -6 -26 -14 -45
-18 -41 -41 -47 -178 -43 l-97 3 21 42 c24 48 28 49 176 51 57 1 92 -2 92 -8z
m293 -25 c-4 -48 -24 -55 -151 -55 -113 0 -113 0 -106 23 23 73 12 68 141 65
l118 -3 -2 -30z m278 -5 c52 -11 109 -20 127 -20 29 0 33 -3 30 -22 -3 -22 -7
-23 -93 -21 -49 1 -136 5 -192 8 -91 6 -103 9 -103 25 0 52 80 62 231 30z
m1777 -90 c105 -117 159 -187 149 -196 -4 -4 -865 26 -874 30 -1 1 -4 13 -8
29 l-7 27 78 0 c54 -1 85 -5 98 -15 23 -18 58 -19 73 -4 7 7 53 5 157 -6 176
-20 295 -17 349 9 29 14 35 21 25 27 -8 4 -90 13 -183 19 -92 6 -178 13 -191
16 -23 6 -38 29 -28 45 8 13 78 11 174 -6 148 -26 206 -16 118 20 -31 13 -81
19 -174 23 l-131 5 -11 35 -11 35 102 -6 c74 -5 112 -3 137 7 19 8 40 14 47
15 7 0 57 -49 111 -109z m-450 70 c12 -12 22 -30 22 -42 0 -21 -1 -21 -182
-15 -182 6 -197 10 -198 45 0 8 17 12 53 13 28 0 72 4 97 8 25 5 77 9 116 10
58 1 74 -3 92 -19z m-954 3 c71 -5 77 -8 74 -27 -3 -20 -10 -21 -120 -24 -112
-2 -118 -2 -118 17 0 39 31 46 164 34z m546 -24 c7 -11 10 -22 8 -24 -5 -4
-254 -10 -350 -7 -78 2 -88 4 -88 20 0 10 3 22 7 25 3 4 98 7 209 7 196 0 204
-1 214 -21z m-1230 -49 c0 -6 -12 -15 -27 -21 -37 -14 -233 -25 -233 -13 0 19
16 32 45 37 63 9 215 7 215 -3z m-309 -22 c-7 -19 -19 -24 -74 -32 -39 -5 -95
-5 -137 0 -68 9 -70 10 -56 29 12 18 27 20 145 23 l131 3 -9 -23z m704 2 c45
-7 41 -7 -40 -9 -134 -2 -293 10 -270 21 21 9 228 1 310 -12z m340 -10 c-25
-11 -151 -11 -185 0 -16 5 18 8 90 8 73 0 108 -3 95 -8z m355 0 c-136 -11
-270 -11 -245 0 11 5 92 8 180 8 151 -1 155 -2 65 -8z m575 -2 c14 -6 25 -15
25 -19 0 -11 -320 -5 -345 7 -16 7 -9 10 35 15 101 11 258 9 285 -3z m-1675
-58 c0 -28 40 -27 47 1 6 22 8 22 167 15 229 -10 266 -15 266 -36 0 -17 -20
-18 -332 -14 -361 5 -433 10 -405 26 21 11 121 25 200 27 51 1 57 -1 57 -19z
m1237 -5 c37 -16 73 -42 73 -54 0 -7 -411 -3 -457 5 -27 4 -33 10 -33 29 0 22
4 24 58 28 167 10 324 7 359 -8z m-459 -25 l4 -23 -122 6 c-67 3 -124 8 -127
11 -3 3 0 13 8 22 11 13 30 15 124 11 105 -4 110 -5 113 -27z m-1255 13 c-24
-2 -62 -2 -85 0 -24 2 -5 4 42 4 47 0 66 -2 43 -4z"/>
<path d="M6440 3300 c-75 -16 -185 -76 -228 -125 -34 -39 -47 -66 -67 -142 -5
-20 -10 -21 -78 -16 -76 6 -131 -10 -143 -41 -4 -11 -20 -6 -66 17 -82 43
-211 49 -338 18 -101 -26 -300 -121 -387 -185 -102 -75 -187 -198 -218 -317
-25 -93 -16 -236 19 -319 4 -11 -11 -23 -57 -45 -104 -50 -159 -158 -159 -314
0 -141 44 -244 130 -306 23 -16 43 -39 46 -50 3 -11 12 -54 22 -95 54 -242
208 -461 422 -603 79 -53 87 -68 85 -151 -1 -39 -14 -75 -59 -165 l-58 -115
-4 -125 c-4 -115 -7 -129 -28 -154 -13 -16 -24 -37 -24 -47 0 -15 8 -18 49
-18 30 0 48 5 48 12 -1 39 8 58 52 107 61 68 81 108 121 239 38 122 62 174 99
213 37 40 64 52 192 87 62 17 144 47 182 67 131 69 245 210 329 407 l42 98 56
-5 c30 -3 72 -9 93 -13 34 -6 40 -3 71 29 37 40 78 154 96 272 6 39 15 76 19
83 6 10 37 -2 122 -47 160 -84 235 -104 357 -99 131 5 182 30 275 133 78 85
83 87 205 59 65 -15 75 -15 129 1 94 27 207 92 282 161 127 118 178 264 152
436 -16 105 -45 181 -133 347 -39 74 -88 181 -108 238 -50 137 -76 175 -142
207 -99 48 -217 56 -302 21 -51 -21 -84 -19 -122 10 -18 14 -44 25 -58 25 -14
0 -37 13 -54 30 -39 39 -90 40 -238 4 -138 -33 -160 -28 -256 62 -87 83 -154
114 -251 119 -39 2 -92 0 -117 -5z m194 -61 c27 -7 59 -31 106 -80 95 -97 117
-103 294 -73 53 9 107 13 122 10 l26 -7 -34 -22 c-49 -33 -84 -113 -114 -262
-28 -145 -48 -198 -88 -235 -74 -68 -306 12 -306 105 0 32 -17 75 -30 75 -12
0 -13 -44 -1 -85 l8 -30 -58 0 c-50 0 -62 -4 -88 -29 -40 -38 -55 -86 -47
-147 8 -59 5 -60 -90 -20 -38 15 -84 31 -102 35 -28 5 -33 3 -30 -12 4 -23 92
-74 174 -101 61 -20 68 -20 90 -6 23 15 24 19 18 103 -8 107 -1 117 88 117 56
0 62 -2 93 -36 42 -46 58 -115 45 -192 -17 -104 -55 -150 -124 -150 -45 0 -61
7 -215 89 -91 48 -145 52 -187 14 -48 -45 -65 -99 -75 -248 -13 -175 -28 -230
-74 -271 -20 -17 -46 -31 -58 -31 -63 -1 -59 -52 4 -58 45 -4 99 36 135 102
24 43 27 63 35 201 9 165 16 196 56 237 55 57 126 48 244 -32 123 -83 177 -88
250 -23 64 58 88 187 55 297 -13 44 -13 47 2 41 132 -54 208 -41 251 43 10 21
33 104 51 185 37 174 56 223 101 261 38 32 75 32 190 1 65 -17 69 -17 163 4
123 27 159 26 221 -3 84 -38 141 -119 184 -260 27 -88 27 -99 -1 -91 -38 13
-114 8 -147 -9 -36 -19 -49 -45 -62 -131 -14 -86 -26 -119 -55 -146 -37 -35
-82 -29 -220 29 -139 59 -203 76 -257 66 -54 -9 -112 -63 -131 -122 -9 -26
-25 -62 -37 -81 -17 -29 -24 -32 -50 -27 -24 4 -29 2 -29 -13 0 -32 37 -55 82
-52 19 1 46 49 68 118 7 23 28 57 47 75 32 31 38 33 106 33 65 0 83 -5 192
-54 152 -69 220 -78 259 -36 17 18 30 51 41 103 25 118 34 139 68 168 28 23
37 26 87 21 30 -3 68 -11 83 -18 23 -11 27 -17 22 -40 -5 -21 -2 -30 14 -38
11 -6 26 -8 34 -5 10 4 22 -20 45 -93 48 -153 54 -182 55 -274 0 -76 -3 -94
-30 -151 -51 -110 -179 -218 -310 -264 -62 -21 -160 -29 -196 -15 l-28 11 18
32 c27 49 25 188 -3 249 -58 125 -170 186 -268 145 -48 -20 -71 -49 -101 -130
-46 -124 -70 -135 -208 -91 -43 14 -102 25 -132 25 -50 0 -58 -3 -105 -45 -28
-25 -58 -45 -67 -45 -8 0 -51 16 -94 36 -44 19 -94 38 -113 41 -49 8 -119 -26
-150 -74 -36 -55 -70 -193 -48 -193 16 0 41 35 70 100 16 36 39 74 52 85 34
30 100 26 192 -13 104 -44 126 -42 188 13 43 38 57 45 94 45 23 0 76 -12 117
-26 91 -31 160 -35 188 -10 11 10 37 58 57 107 44 107 67 130 131 136 39 4 55
0 82 -19 110 -74 116 -319 10 -374 -18 -9 -69 -51 -114 -93 -96 -91 -135 -106
-265 -105 -95 1 -128 13 -235 89 -84 59 -118 75 -163 75 -62 0 -78 -29 -107
-195 -33 -195 -39 -202 -159 -187 -51 7 -96 8 -115 2 -26 -7 -32 -5 -46 16
-21 33 -73 64 -107 64 -16 0 -85 -25 -155 -54 -207 -89 -286 -109 -433 -110
-109 -1 -129 2 -160 20 -47 27 -76 72 -101 158 -27 92 -52 139 -86 166 -25 20
-37 22 -111 18 -73 -4 -82 -3 -75 11 15 32 14 138 -1 204 -30 128 -19 207 38
275 35 41 59 41 101 -1 37 -37 55 -89 55 -160 0 -52 -11 -81 -42 -111 -16 -15
-19 -28 -15 -63 10 -89 95 -171 152 -145 21 10 25 18 25 54 0 24 -5 50 -10 58
-7 12 -12 8 -21 -18 -10 -30 -15 -33 -38 -27 -58 15 -63 35 -25 115 40 85 37
170 -11 266 -77 156 -185 166 -252 22 -32 -67 -34 -113 -15 -243 22 -141 17
-178 -29 -219 l-33 -29 -16 21 c-12 14 -21 17 -27 11 -16 -16 -60 44 -78 103
-19 64 -19 104 0 193 8 38 15 82 15 97 0 48 20 76 71 97 26 12 52 21 57 21 5
0 21 11 36 25 33 31 33 55 -1 172 -25 86 -26 99 -16 160 33 189 208 370 454
467 142 56 306 73 371 40 l31 -16 -24 -12 c-72 -35 -66 -121 28 -411 47 -147
54 -242 21 -305 -40 -77 -104 -86 -184 -25 -35 27 -74 91 -74 122 0 34 37 81
67 85 37 4 41 32 9 54 -24 15 -28 15 -52 -1 -39 -25 -57 -78 -52 -157 3 -56 1
-68 -12 -68 -8 0 -37 -13 -65 -28 -99 -54 -138 -159 -111 -293 27 -127 95
-247 154 -270 33 -13 62 2 139 72 103 94 131 100 158 34 34 -80 7 -201 -55
-245 -52 -37 -92 -35 -172 8 -3 2 -4 -6 -1 -17 13 -49 102 -96 156 -80 92 26
150 170 125 312 -9 51 -18 69 -48 100 -29 29 -45 37 -73 37 -43 0 -67 -23
-117 -112 -33 -57 -39 -63 -68 -62 -53 3 -98 39 -131 106 -27 52 -31 72 -31
138 0 92 19 153 62 197 53 54 108 53 219 -3 85 -44 159 -22 200 57 18 37 21
55 17 133 -4 77 -12 114 -57 241 -33 96 -54 174 -58 218 l-6 67 42 41 c34 31
47 38 64 32 41 -13 71 -5 100 27 25 28 33 31 65 26 122 -20 129 -20 145 5 9
13 19 44 23 69 12 78 47 121 142 169 77 39 188 52 266 30z m-1444 -1729 c29
-15 39 -41 55 -132 8 -44 21 -88 30 -98 12 -13 13 -26 3 -77 -14 -78 2 -150
66 -291 25 -54 46 -102 46 -106 0 -10 -139 86 -192 133 -130 115 -227 305
-253 494 -6 46 -6 47 22 47 15 0 55 9 88 19 69 22 108 25 135 11z m1033 -231
c29 -15 57 -50 57 -72 0 -31 -76 -180 -126 -246 -64 -85 -175 -166 -265 -191
l-27 -8 19 33 c13 21 23 67 30 127 22 213 34 249 92 273 19 8 32 21 32 31 0
45 132 82 188 53z m-791 -119 c4 0 18 -4 32 -9 l24 -10 -19 -51 c-11 -28 -19
-75 -19 -108 0 -67 24 -160 47 -182 14 -13 15 -13 8 5 -11 30 -19 178 -11 218
4 20 19 48 36 63 16 15 27 31 24 36 -8 12 9 16 164 33 78 9 150 19 159 22 14
6 15 -4 10 -93 -9 -171 -58 -279 -149 -325 -38 -19 -48 -20 -127 -10 -47 5
-106 16 -131 23 -44 13 -46 16 -92 108 -59 120 -78 183 -78 258 0 94 3 97 63
57 29 -19 55 -35 59 -35z m168 -517 c-40 -45 -54 -73 -116 -241 -52 -140 -94
-221 -133 -256 -16 -15 -19 -15 -24 -2 -8 19 7 109 26 161 8 22 33 76 56 119
50 99 67 172 52 231 -6 24 -11 48 -11 53 0 5 40 -1 89 -12 l90 -20 -29 -33z"/>
<path d="M5204 2776 c-57 -25 -93 -161 -53 -201 14 -15 17 -10 32 51 20 78 37
101 82 110 75 14 101 -32 115 -205 13 -159 29 -197 82 -189 24 3 68 60 68 88
0 29 -29 32 -52 5 -12 -14 -25 -25 -30 -25 -4 0 -8 35 -8 78 0 222 -102 346
-236 288z"/>
<path d="M1510 3155 c-374 -54 -577 -70 -945 -72 -460 -2 -423 2 -436 -47 -9
-33 -6 -65 16 -186 15 -80 38 -189 51 -243 48 -200 59 -304 58 -577 -1 -201
-6 -289 -23 -415 -39 -290 -104 -573 -190 -828 -34 -102 -37 -115 -20 -106 31
16 86 108 113 189 29 87 117 478 140 625 62 385 42 867 -55 1345 -16 79 -29
147 -29 150 0 3 131 3 290 1 378 -4 671 16 1024 70 131 21 140 21 152 5 19
-27 72 -229 94 -361 62 -382 50 -858 -36 -1375 -52 -312 -171 -717 -216 -733
-7 -2 -42 6 -78 19 -80 28 -162 46 -355 79 -274 45 -403 58 -610 59 -240 1
-375 -18 -375 -54 0 -4 111 -6 248 -6 162 1 253 -3 265 -10 17 -10 15 -15 -29
-70 -182 -223 -201 -250 -190 -262 4 -3 21 1 39 10 31 14 40 13 237 -44 470
-135 746 -194 1102 -233 l57 -6 -6 -32 -6 -32 57 53 c32 28 62 52 67 52 5 0 9
5 9 10 0 6 -9 10 -20 10 -27 0 -25 26 5 55 29 30 29 30 130 5 44 -11 108 -20
142 -20 54 0 63 -3 68 -21 5 -14 0 -28 -15 -44 -13 -14 -20 -31 -16 -40 5 -14
9 -14 38 1 68 34 83 61 53 94 -14 16 -13 25 15 96 17 44 63 139 101 213 138
264 189 410 209 599 7 68 30 170 65 293 65 226 89 346 111 551 18 173 23 588
10 841 l-8 157 -49 0 c-26 0 -109 -13 -182 -30 -74 -16 -149 -30 -166 -30
l-31 0 0 110 c0 61 -4 110 -8 110 -5 0 -35 -9 -68 -20 -72 -25 -502 -142 -528
-144 -16 -1 -23 12 -38 74 -36 151 -50 190 -67 189 -9 -1 -86 -12 -171 -24z
m843 -680 c1 -408 -9 -571 -54 -892 -69 -498 -228 -1017 -415 -1361 l-47 -85
-91 7 c-219 16 -508 64 -752 126 -226 58 -514 143 -514 152 0 15 64 106 125
181 l57 67 56 0 c85 0 313 -36 518 -81 213 -46 259 -47 305 -4 39 37 74 91 98
153 15 36 21 43 26 30 11 -26 79 -23 143 7 63 29 87 31 100 8 9 -14 14 -15 41
-3 18 7 36 20 40 29 12 22 -4 58 -28 66 -29 9 -141 -22 -166 -45 -15 -14 -35
-20 -66 -20 -25 0 -51 -6 -58 -13 -11 -10 -12 -8 -7 8 21 70 61 250 86 384 41
217 88 367 114 358 6 -2 14 -22 19 -44 12 -61 31 -61 88 -3 51 53 67 55 94 14
26 -40 91 -27 143 29 31 32 14 42 -33 20 -36 -17 -38 -17 -75 5 -52 30 -63 28
-111 -15 -39 -36 -43 -37 -53 -19 -23 40 -48 58 -72 53 -22 -4 -24 -1 -24 35
0 47 18 311 26 386 5 49 7 52 20 35 13 -17 15 -16 44 15 16 17 32 32 35 32 2
0 11 -13 20 -30 9 -16 20 -30 24 -30 5 0 24 16 42 35 22 23 37 31 43 25 15
-15 52 -12 66 5 26 31 50 12 50 -40 0 -42 26 -41 49 2 17 34 13 81 -10 104
-19 19 -22 19 -44 5 -32 -21 -44 -20 -70 4 -27 25 -49 18 -67 -21 -15 -29 -15
-29 -33 -9 -22 24 -62 26 -86 4 -16 -14 -18 -14 -24 5 -8 26 -22 27 -48 4 -20
-18 -20 -17 -12 102 9 146 9 172 -6 207 -9 22 -9 32 2 45 12 14 12 16 -2 11
-13 -5 -20 19 -43 159 -15 90 -26 166 -24 167 1 2 56 13 120 24 116 22 322 78
388 106 l35 14 8 -61 c5 -34 9 -237 10 -452z m413 363 c11 -36 8 -530 -5 -683
-6 -77 -18 -198 -27 -270 -8 -71 -17 -154 -19 -183 -3 -29 -7 -57 -9 -61 -3
-4 -14 -85 -25 -181 -28 -233 -49 -316 -92 -350 -12 -10 -25 -48 -39 -115 -43
-213 -114 -426 -214 -640 -26 -55 -54 -106 -63 -112 -9 -7 -44 -13 -77 -13
-76 0 -236 38 -236 56 0 20 77 184 87 184 4 0 28 -14 53 -30 55 -36 99 -38
160 -7 79 39 59 76 -23 42 -20 -8 -47 -15 -60 -15 -24 0 -107 48 -107 63 0 8
79 199 86 206 1 2 24 -4 50 -13 25 -8 50 -13 55 -11 4 3 32 7 60 9 43 2 57 8
76 31 13 15 22 29 19 32 -2 2 -31 -1 -65 -8 -66 -13 -146 -8 -164 10 -8 8 -3
35 19 104 l30 92 57 -3 c66 -4 98 11 122 58 14 26 14 30 1 30 -9 0 -20 -9 -26
-20 -12 -23 -49 -26 -99 -9 -28 10 -31 15 -27 38 3 14 10 65 15 113 15 130 14
129 116 122 69 -6 89 -4 110 10 14 9 25 23 25 31 0 12 -18 15 -95 15 -73 0
-97 3 -101 14 -3 8 4 72 15 143 33 199 23 178 89 178 63 0 124 28 130 59 4 17
-2 18 -65 11 -128 -14 -116 -21 -120 70 -4 105 8 131 61 127 32 -3 44 1 72 29
19 18 34 37 34 41 0 13 -125 9 -139 -4 -11 -11 -13 19 -8 176 7 199 8 206 55
206 35 0 95 35 130 75 27 30 40 55 30 55 -2 0 -41 -14 -88 -30 -122 -43 -120
-43 -120 38 0 38 -3 109 -6 159 l-7 90 64 7 c35 4 98 16 139 26 141 35 157 36
166 8z"/>
<path d="M2163 2482 c-28 -18 -25 -65 6 -114 17 -27 35 -48 40 -48 17 0 51 52
51 79 0 29 -24 63 -57 80 -26 13 -25 13 -40 3z"/>
<path d="M1905 2436 c-19 -44 -19 -77 -2 -100 13 -17 16 -16 44 19 l31 37 16
-31 c19 -36 27 -38 48 -13 38 43 40 59 10 93 -32 35 -66 34 -78 -3 -6 -20 -6
-20 -18 3 -18 36 -35 34 -51 -5z"/>
<path d="M1995 1874 c-21 -8 -53 -13 -70 -12 -36 2 -55 -7 -55 -27 0 -26 40
-27 102 -4 l61 22 27 -34 28 -34 34 17 c28 13 42 14 75 5 46 -12 76 -4 71 19
-5 26 -76 47 -116 36 -27 -9 -34 -7 -42 9 -13 23 -57 24 -115 3z"/>
<path d="M1975 1282 c-30 -14 -46 -16 -66 -9 -36 14 -72 2 -110 -35 -29 -29
-30 -33 -13 -36 10 -2 35 -10 55 -19 36 -15 38 -14 83 12 41 24 54 27 96 21
48 -6 50 -6 70 26 19 31 19 34 3 46 -24 17 -71 15 -118 -6z"/>
<path d="M1655 608 c-24 -13 -45 -38 -45 -52 0 -7 17 -10 43 -8 32 3 51 -2 80
-22 34 -24 41 -25 65 -14 55 27 33 78 -43 97 -54 14 -74 13 -100 -1z"/>
<path d="M697 563 c-19 -19 -4 -42 36 -58 60 -23 111 -17 115 12 3 17 -5 26
-34 38 -37 15 -105 20 -117 8z"/>
<path d="M915 540 c-3 -5 5 -16 17 -24 45 -29 108 -45 230 -56 193 -18 234
-27 291 -66 43 -30 56 -34 88 -29 28 5 53 0 101 -20 84 -36 108 -41 108 -23 0
25 -29 56 -63 67 -17 6 -63 15 -101 21 -39 6 -101 25 -140 42 -41 18 -101 34
-144 40 -41 5 -125 20 -188 33 -119 26 -189 31 -199 15z"/>
<path d="M1225 2697 c-12 -18 -12 -30 -4 -62 6 -22 16 -48 21 -58 9 -18 11
-18 29 -1 24 22 25 76 2 115 -21 35 -28 36 -48 6z"/>
<path d="M632 2698 c-17 -17 -15 -94 4 -129 35 -68 71 1 43 84 -15 46 -31 61
-47 45z"/>
<path d="M1330 2684 c-14 -37 -14 -40 27 -84 44 -50 81 -52 96 -6 9 27 6 33
-36 73 -53 49 -73 54 -87 17z"/>
<path d="M412 2687 c-16 -20 -24 -73 -16 -111 5 -31 10 -36 35 -36 20 0 35 9
50 29 l22 30 21 -32 c28 -41 59 -46 74 -13 9 20 8 27 -1 33 -7 4 -20 21 -30
36 -10 15 -30 33 -44 40 -23 10 -28 8 -49 -16 l-23 -27 -7 35 c-7 40 -17 50
-32 32z"/>
<path d="M1033 2672 c-16 -28 -17 -29 -44 -13 -26 15 -30 14 -57 -6 -27 -20
-29 -20 -40 -2 -22 34 -49 42 -72 19 -22 -22 -28 -73 -7 -68 7 2 27 -13 45
-32 l31 -35 25 30 c20 24 27 28 37 18 23 -23 57 -15 76 17 9 17 20 30 23 30 3
0 13 -14 22 -30 9 -17 29 -35 44 -42 23 -11 28 -10 45 11 22 27 19 35 -35 91
-45 47 -71 51 -93 12z"/>
<path d="M1530 2681 c-17 -33 -12 -46 31 -75 39 -25 43 -26 60 -10 26 23 24
50 -6 79 -29 30 -70 33 -85 6z"/>
<path d="M742 2648 c-19 -19 -14 -73 8 -93 18 -17 22 -17 36 -4 13 14 13 21
-5 62 -22 52 -22 52 -39 35z"/>
<path d="M1213 2428 c-4 -7 -7 -38 -6 -68 2 -100 34 -139 69 -86 13 22 14 33
4 83 -13 62 -24 83 -46 83 -7 0 -16 -6 -21 -12z"/>
<path d="M959 2409 c-11 -11 -19 -23 -17 -27 2 -4 11 -28 22 -55 19 -48 40
-59 64 -35 26 26 3 118 -33 132 -9 3 -24 -3 -36 -15z"/>
<path d="M687 2413 c-15 -15 -5 -64 19 -93 28 -32 43 -30 65 12 19 35 -57 109
-84 81z"/>
<path d="M822 2408 c-18 -18 -14 -64 8 -108 23 -45 30 -48 53 -22 22 24 21 34
-2 81 -26 49 -44 64 -59 49z"/>
<path d="M1472 2373 c-7 -22 -4 -39 17 -80 28 -59 43 -65 66 -29 13 20 14 32
6 61 -20 72 -71 100 -89 48z"/>
<path d="M487 2372 c-22 -25 -21 -48 3 -72 26 -26 36 -25 64 5 l24 25 16 -25
c22 -33 32 -32 56 8 22 35 26 52 10 42 -5 -3 -10 -1 -10 5 0 6 -11 15 -24 22
-20 9 -31 7 -61 -11 -37 -21 -37 -21 -42 -1 -7 25 -15 25 -36 2z"/>
<path d="M1347 2383 c-16 -15 -3 -86 19 -112 10 -11 44 35 44 59 0 38 -43 74
-63 53z"/>
<path d="M465 2190 c-23 -37 -16 -191 9 -226 13 -17 17 -15 65 34 29 30 57 52
64 49 7 -2 18 -23 25 -48 8 -24 16 -50 18 -58 4 -11 8 -11 26 1 35 23 46 47
27 58 -9 6 -20 26 -23 45 -12 64 -57 64 -124 2 -20 -20 -36 -27 -42 -21 -5 5
-10 45 -12 88 -3 75 -16 104 -33 76z"/>
<path d="M790 2053 c0 -42 32 -135 48 -141 5 -1 24 12 43 30 25 25 29 34 17
36 -9 2 -19 18 -22 36 -8 39 -39 76 -66 76 -16 0 -20 -7 -20 -37z"/>
<path d="M957 2053 c-14 -13 -6 -54 13 -73 27 -27 62 -25 89 4 l22 23 37 -18
c48 -25 93 -24 127 3 27 21 27 21 59 2 25 -15 54 -19 161 -20 72 -2 143 -7
159 -14 23 -8 31 -8 38 2 13 21 11 22 -54 47 -74 29 -149 37 -201 23 -30 -9
-47 -7 -83 6 -42 16 -47 16 -75 -1 -39 -22 -55 -22 -86 3 -33 26 -45 25 -82
-6 l-31 -26 -35 26 c-35 27 -47 31 -58 19z"/>
<path d="M527 1752 c-20 -23 -38 -90 -26 -98 5 -3 30 8 56 25 26 17 50 31 55
31 5 0 22 -14 38 -32 26 -28 32 -30 54 -20 25 11 75 92 57 92 -5 0 -19 -8 -31
-18 -23 -18 -24 -18 -42 0 -22 22 -59 23 -98 3 -28 -15 -30 -14 -30 4 0 28
-15 34 -33 13z"/>
<path d="M906 1724 c-23 -13 -34 -14 -53 -5 -19 9 -29 9 -39 0 -18 -15 -18
-22 5 -50 l18 -23 48 28 48 28 104 -17 c110 -18 163 -15 183 11 7 8 11 16 9
18 -7 5 -213 26 -254 26 -22 -1 -53 -8 -69 -16z"/>
<path d="M1360 1725 c-19 -22 -6 -42 33 -49 37 -7 83 8 91 30 3 8 -11 16 -45
23 -64 14 -64 14 -79 -4z"/>
<path d="M1607 1672 c-19 -21 -22 -49 -7 -72 8 -13 13 -13 37 0 22 13 28 23
28 50 0 28 -4 36 -21 38 -11 2 -28 -6 -37 -16z"/>
<path d="M511 1473 c-20 -8 -61 -103 -61 -145 l0 -37 36 15 c26 11 52 13 90 8
51 -6 55 -5 85 25 17 18 30 33 28 35 -2 2 -44 0 -94 -4 -49 -3 -91 -6 -93 -5
-1 1 7 24 18 50 20 48 18 67 -9 58z"/>
<path d="M750 1365 c-12 -15 -4 -41 15 -49 8 -3 40 5 73 16 l58 22 22 -22 c30
-30 62 -36 155 -29 74 6 88 4 180 -28 115 -40 164 -44 198 -15 l24 19 -31 1
c-16 0 -86 16 -154 35 -104 29 -140 35 -223 35 -54 0 -107 5 -118 11 -29 15
-187 18 -199 4z"/>
<path d="M1506 1254 c-8 -21 -9 -20 21 -39 25 -17 27 -17 39 0 9 13 10 23 3
36 -12 23 -55 25 -63 3z"/>
<path d="M485 1147 c-8 -13 -18 -45 -22 -72 -6 -48 -6 -48 18 -40 13 4 40 7
59 6 19 -1 75 -2 124 -4 61 -1 91 -6 93 -14 7 -20 48 -15 78 9 l28 21 -134 24
c-80 14 -150 21 -173 17 l-38 -6 7 41 c5 33 4 41 -9 41 -8 0 -22 -10 -31 -23z"/>
<path d="M353 1095 c-22 -9 -33 -21 -33 -35 0 -23 23 -26 67 -9 34 13 45 29
31 46 -13 16 -25 16 -65 -2z"/>
<path d="M984 1045 c-9 -21 14 -45 43 -45 30 0 84 22 100 41 10 12 0 15 -63
17 -60 2 -75 0 -80 -13z"/>
<path d="M1292 1018 c-33 -33 16 -67 108 -75 98 -9 169 32 127 74 -13 13 -22
13 -75 -1 -54 -14 -65 -14 -96 -1 -43 18 -49 18 -64 3z"/>
</g>
</svg>
