<?xml version="1.0" standalone="no"?>
<!DOCTYPE svg PUBLIC "-//W3C//DTD SVG 20010904//EN"
 "http://www.w3.org/TR/2001/REC-SVG-20010904/DTD/svg10.dtd">
<svg version="1.0" xmlns="http://www.w3.org/2000/svg"
 width="1280.000000pt" height="914.000000pt" viewBox="0 0 1280.000000 914.000000"
 preserveAspectRatio="xMidYMid meet">
<metadata>
Created by potrace 1.15, written by Peter Selinger 2001-2017
</metadata>
<g transform="translate(0.000000,914.000000) scale(0.100000,-0.100000)"
fill="#cddc39" stroke="none">
<path d="M9359 8746 c-66 -45 -69 -65 -69 -433 0 -307 1 -329 20 -367 41 -83
29 -81 436 -84 l360 -3 33 23 c70 48 71 53 71 433 0 379 -1 385 -70 433 -33
22 -36 22 -389 22 l-356 0 -36 -24z m741 -101 l0 -74 -82 -3 -83 -3 -3 -57 -3
-58 87 0 c84 0 86 0 81 -22 -3 -13 -9 -44 -12 -70 l-7 -48 -74 0 -74 0 0 -200
0 -200 -90 0 -90 0 0 199 0 200 -42 3 -43 3 -3 67 -3 67 43 3 43 3 5 80 c10
149 56 185 238 185 l112 0 0 -75z"/>
<path d="M10411 7834 c-120 -32 -238 -129 -291 -239 -134 -275 42 -613 340
-654 368 -50 642 324 478 656 -34 70 -129 168 -195 202 -98 50 -227 63 -332
35z m257 -59 c39 -16 42 -19 28 -33 -12 -12 -20 -13 -44 -3 -33 14 -58 6 -99
-32 -28 -25 -29 -37 -3 -30 29 8 38 -24 13 -48 -17 -17 -23 -18 -46 -8 -21 10
-33 8 -72 -11 -35 -17 -43 -25 -35 -35 8 -10 7 -16 -6 -23 -11 -6 -13 -12 -5
-16 12 -8 51 10 51 24 0 23 48 8 80 -25 40 -42 56 -44 64 -10 8 31 51 54 68
37 9 -9 8 -16 -4 -29 -8 -10 -14 -23 -11 -29 4 -13 -80 -64 -106 -64 -9 0 -38
16 -65 35 -27 19 -60 35 -73 35 -32 0 -78 -25 -97 -52 -18 -25 -21 -100 -6
-129 15 -26 62 -49 104 -49 49 0 72 -33 87 -128 11 -66 18 -82 47 -109 18 -18
42 -33 53 -33 10 0 19 -5 19 -11 0 -7 -30 -10 -92 -7 -79 2 -103 8 -159 34
-112 53 -204 166 -224 276 -6 29 -2 45 16 74 l22 37 -22 19 c-27 21 -25 49 8
124 15 33 26 44 42 44 12 0 39 18 61 40 31 31 39 45 34 63 -5 21 1 27 52 50
31 15 73 31 92 37 49 14 177 5 228 -15z m199 -411 c14 -3 25 -14 29 -29 3 -14
12 -29 20 -33 22 -12 -43 -137 -102 -196 -42 -42 -168 -116 -178 -105 -2 2 0
30 4 62 6 40 25 89 65 163 30 59 54 108 52 111 -2 2 -17 -1 -32 -7 -33 -13
-62 7 -52 34 6 14 19 16 89 11 46 -4 93 -8 105 -11z"/>
<path d="M7703 7240 c-85 -22 -117 -38 -200 -96 -63 -45 -79 -69 -68 -104 12
-39 51 -36 108 8 64 50 144 88 217 103 74 15 202 6 270 -20 48 -18 80 -37 177
-107 31 -22 71 -11 79 22 9 36 -49 93 -147 144 -136 71 -290 88 -436 50z"/>
<path d="M7728 7065 c-25 -8 -75 -34 -110 -58 -49 -33 -64 -48 -66 -70 -8 -64
43 -74 109 -22 64 51 125 68 218 63 80 -5 132 -25 189 -73 48 -40 102 -29 102
21 0 29 -62 84 -136 120 -51 25 -72 29 -159 31 -67 2 -115 -2 -147 -12z"/>
<path d="M7750 6881 c-19 -11 -45 -30 -58 -44 -29 -31 -27 -76 4 -88 21 -7 37
-1 89 35 43 31 114 27 160 -8 57 -44 104 -35 105 20 0 23 -40 64 -87 88 -46
23 -167 21 -213 -3z"/>
<path d="M10696 6621 c-130 -130 -225 -234 -222 -240 4 -6 32 -11 62 -11 l54
0 0 -145 0 -145 140 0 140 0 0 85 0 84 35 7 c19 3 46 3 60 0 23 -6 25 -11 27
-69 1 -34 2 -71 2 -82 1 -19 9 -20 138 -23 l137 -3 3 143 3 143 58 3 c36 2 57
7 57 15 0 7 -38 50 -85 97 l-85 85 0 127 0 128 -55 0 -55 0 0 -65 c0 -36 -3
-65 -8 -65 -4 0 -43 36 -87 80 -44 44 -82 80 -85 80 -3 0 -108 -103 -234 -229z"/>
<path d="M9310 6705 c0 -14 5 -25 10 -25 6 0 10 11 10 25 0 14 -4 25 -10 25
-5 0 -10 -11 -10 -25z"/>
<path d="M9490 6705 c0 -14 5 -25 10 -25 6 0 10 11 10 25 0 14 -4 25 -10 25
-5 0 -10 -11 -10 -25z"/>
<path d="M7817 6702 c-26 -28 -21 -69 9 -88 55 -37 117 25 80 80 -20 31 -65
35 -89 8z"/>
<path d="M9250 6663 l0 -38 160 0 160 0 0 38 c0 42 -24 52 -34 13 -10 -42 -76
-38 -76 4 0 17 -7 20 -49 20 -44 0 -50 -3 -53 -22 -2 -18 -10 -23 -33 -23 -22
0 -33 6 -40 23 -16 35 -35 27 -35 -15z"/>
<path d="M9250 6470 l0 -120 160 0 160 0 0 120 0 120 -160 0 -160 0 0 -120z
m157 10 c2 -65 -8 -80 -53 -80 -26 0 -34 4 -34 19 0 14 6 17 25 13 27 -5 35
12 10 22 -17 6 -21 36 -5 36 6 0 10 4 10 9 0 5 -8 8 -17 7 -10 0 -19 7 -21 17
-3 16 2 18 40 15 l43 -3 2 -55z m93 -10 c0 -63 -2 -70 -20 -70 -17 0 -20 7
-20 45 0 33 -4 45 -15 45 -8 0 -15 7 -15 15 0 16 27 34 53 35 15 0 17 -10 17
-70z"/>
<path d="M3170 6418 c-19 -6 -53 -11 -75 -11 -22 0 -42 -4 -45 -8 -3 -5 -53
-9 -110 -10 -58 0 -136 -6 -175 -12 -38 -5 -76 -10 -83 -10 -7 0 -11 -6 -8
-12 6 -16 -36 -35 -79 -35 -19 0 -37 -4 -40 -10 -4 -6 10 -10 34 -10 44 0 56
-16 19 -23 -13 -2 7 -5 43 -6 104 -2 129 -10 175 -58 23 -23 46 -43 51 -43 23
-1 46 -32 48 -65 1 -33 -1 -36 -23 -30 -21 5 -23 3 -20 -22 2 -17 11 -32 25
-38 14 -6 21 -16 18 -26 -6 -19 31 -54 65 -62 14 -3 34 -8 46 -12 17 -5 24 2
44 49 23 55 51 76 100 76 10 0 34 11 54 25 20 14 51 25 69 26 41 1 122 26 90
28 -13 1 -23 5 -23 10 0 5 -3 16 -6 24 -4 11 1 13 21 10 14 -3 28 -9 31 -14 7
-11 24 -12 24 -1 0 5 -11 14 -25 20 -31 14 -23 46 9 40 23 -5 51 16 41 31 -3
5 1 12 7 14 8 3 6 6 -4 6 -10 1 -18 6 -18 11 0 6 8 10 18 11 16 0 16 1 -1 8
-17 6 -17 8 2 25 12 11 21 25 21 32 0 7 10 15 23 18 12 3 -2 3 -31 1 -42 -3
-52 -1 -44 8 8 9 -11 12 -84 12 -52 0 -94 3 -94 8 0 4 33 7 73 8 l72 1 -55 14
c-35 8 -57 9 -61 3 -4 -6 -15 -6 -33 1 -32 12 -39 12 -86 -2z m190 -284 c0 -8
-4 -12 -10 -9 -5 3 -10 10 -10 16 0 5 5 9 10 9 6 0 10 -7 10 -16z"/>
<path d="M2360 6400 c0 -6 -30 -10 -70 -10 -40 0 -70 -4 -70 -10 0 -6 38 -9
100 -7 55 1 100 -1 100 -5 0 -12 -78 -29 -107 -23 -27 6 -27 6 -9 -9 17 -14
18 -16 3 -16 -20 0 -22 -11 -4 -29 10 -11 6 -12 -20 -6 -21 4 -33 3 -33 -4 0
-7 27 -11 70 -11 39 0 70 4 70 10 0 5 11 15 24 22 14 7 25 18 25 23 0 6 17 14
38 18 21 4 58 15 83 23 25 9 63 19 85 23 l40 7 -55 7 c-84 11 -270 9 -270 -3z"/>
<path d="M3563 6373 c9 -2 23 -2 30 0 6 3 -1 5 -18 5 -16 0 -22 -2 -12 -5z"/>
<path d="M2127 6363 c-12 -11 -8 -23 8 -23 8 0 15 -4 15 -10 0 -12 56 -12 85
0 22 9 21 9 -51 29 -49 13 -49 13 -57 4z"/>
<path d="M5612 6363 c-22 -9 19 -32 58 -33 l35 0 -38 20 c-20 11 -38 20 -39
19 -2 0 -9 -3 -16 -6z"/>
<path d="M4293 6343 c9 -2 23 -2 30 0 6 3 -1 5 -18 5 -16 0 -22 -2 -12 -5z"/>
<path d="M4163 6315 c-15 -34 3 -44 31 -16 18 19 19 23 6 31 -21 14 -24 13
-37 -15z"/>
<path d="M4108 6323 c6 -2 18 -2 25 0 6 3 1 5 -13 5 -14 0 -19 -2 -12 -5z"/>
<path d="M5748 6313 c6 -2 18 -2 25 0 6 3 1 5 -13 5 -14 0 -19 -2 -12 -5z"/>
<path d="M5745 6273 c-16 -9 -52 -17 -80 -18 -97 -4 -165 -17 -186 -36 -14
-12 -37 -19 -66 -19 -23 0 -43 -4 -43 -10 0 -5 4 -10 9 -10 5 0 11 -6 14 -14
4 -11 -2 -12 -34 -3 -34 8 -42 7 -53 -9 -12 -16 -18 -17 -40 -6 -35 16 -34 16
-28 -13 2 -14 11 -25 18 -25 8 0 14 -4 14 -10 0 -5 -4 -10 -9 -10 -5 0 -11 -9
-14 -20 -5 -19 -52 -38 -64 -26 -4 4 0 13 9 22 11 12 13 25 7 57 -4 23 -5 45
-3 49 12 19 -45 5 -65 -15 -19 -21 -20 -25 -6 -37 15 -12 21 -40 8 -40 -3 0
-31 8 -60 17 -46 14 -58 15 -75 4 -12 -7 -58 -15 -104 -17 -45 -2 -101 -11
-123 -20 -23 -9 -50 -14 -60 -11 -11 3 -22 -1 -25 -8 -2 -7 -17 -12 -32 -12
-15 0 -33 -8 -39 -17 -7 -9 -19 -16 -28 -16 -8 0 -17 -5 -19 -12 -7 -21 -56 1
-72 33 l-15 30 61 -3 c40 -2 62 1 65 9 4 12 -66 38 -135 48 -24 4 -55 13 -70
21 -14 7 -29 11 -33 8 -4 -2 -25 -6 -46 -8 -113 -11 -165 -37 -236 -115 -20
-23 -44 -41 -52 -41 -17 0 -75 -27 -75 -36 0 -14 30 -74 38 -74 4 0 17 7 28
15 30 23 39 18 65 -29 20 -39 25 -43 41 -32 10 7 29 29 42 49 20 29 22 38 11
47 -17 15 -7 48 19 62 11 6 33 23 48 39 30 32 45 35 73 15 17 -13 16 -15 -22
-40 -32 -22 -40 -32 -35 -49 8 -31 18 -35 70 -26 27 6 50 5 55 0 16 -16 -3
-31 -42 -31 -36 0 -38 -2 -33 -26 4 -23 2 -25 -24 -22 -25 3 -29 -1 -32 -24
-3 -29 -6 -30 -82 -43 -33 -5 -46 -6 -95 -5 -30 1 -47 21 -40 48 4 17 2 23 -7
20 -8 -3 -12 -18 -10 -41 3 -33 1 -37 -21 -37 -14 0 -31 -7 -38 -16 -24 -29
-133 -94 -158 -95 -25 0 -25 -1 -6 -10 32 -16 47 -47 40 -81 -7 -29 -8 -29
-63 -28 -32 1 -62 1 -68 1 -7 -1 -12 -19 -12 -43 0 -68 6 -88 28 -88 11 0 20
-4 20 -9 0 -12 66 3 85 19 8 7 15 20 15 29 0 17 35 61 48 61 4 0 12 10 17 23
7 14 17 21 30 19 10 -2 37 2 58 9 36 12 40 11 60 -12 30 -34 93 -80 101 -72 3
3 -15 25 -40 49 -26 23 -44 48 -42 56 8 23 35 20 64 -7 16 -15 41 -33 57 -41
15 -8 27 -22 27 -32 0 -21 27 -62 41 -62 5 0 9 9 9 20 0 24 28 40 66 37 23 -2
28 2 26 15 -3 21 22 72 48 98 17 17 24 18 45 8 14 -6 25 -18 25 -25 0 -8 5
-11 10 -8 6 4 8 10 5 15 -7 11 27 30 54 30 23 0 26 -7 12 -29 -7 -11 1 -22 30
-44 24 -18 39 -36 37 -46 -3 -16 -23 -17 -148 -10 -42 2 -125 -26 -128 -44 -5
-24 45 -72 61 -58 8 6 18 6 27 1 8 -6 30 -7 48 -4 31 6 32 5 32 -30 0 -21 -7
-50 -15 -66 -13 -25 -22 -30 -58 -32 -72 -3 -118 2 -148 17 -40 21 -58 19 -69
-11 -9 -22 -15 -25 -38 -20 -15 4 -39 16 -54 26 -15 11 -34 20 -43 20 -29 0
-66 31 -56 48 5 8 6 23 4 32 -4 15 -15 16 -81 12 -47 -3 -92 -12 -114 -23 -24
-12 -47 -17 -66 -13 -24 5 -35 0 -66 -30 -22 -23 -36 -46 -36 -62 0 -22 -42
-74 -60 -74 -4 0 -20 -24 -36 -52 -24 -45 -29 -66 -31 -138 -1 -47 -3 -97 -3
-112 -1 -30 45 -100 108 -165 39 -40 47 -43 75 -37 18 4 44 6 60 5 15 -1 41 5
57 14 41 21 87 19 102 -5 8 -12 24 -20 39 -20 42 0 53 -22 45 -88 -6 -50 -4
-62 14 -85 50 -63 72 -177 46 -239 -22 -50 -20 -91 5 -139 11 -23 25 -67 30
-99 5 -31 22 -84 39 -116 16 -32 30 -69 30 -81 0 -12 3 -24 8 -26 13 -8 126
14 150 29 35 23 91 106 92 135 0 18 9 33 26 44 24 16 26 21 21 65 -6 50 4 66
78 128 25 20 27 27 22 70 -3 26 -11 72 -18 104 -18 80 -3 120 83 212 64 70
128 178 128 217 0 15 -5 16 -61 1 -59 -14 -62 -14 -72 4 -6 10 -12 26 -14 34
-1 8 -15 26 -31 40 -31 26 -82 125 -82 158 0 11 -7 25 -15 32 -8 7 -15 19 -15
27 0 8 -6 26 -14 41 -28 55 -28 69 -4 67 15 -1 30 -14 42 -36 10 -19 27 -46
37 -61 11 -15 19 -34 19 -42 0 -8 15 -37 34 -66 19 -28 37 -71 41 -96 3 -24
12 -44 18 -44 19 0 181 85 213 111 15 13 64 83 64 93 0 2 -15 15 -34 30 -32
24 -36 25 -62 11 -38 -19 -54 -8 -91 63 -23 44 -29 62 -20 71 18 18 35 13 54
-16 26 -40 44 -52 79 -53 17 0 37 -7 44 -15 9 -11 33 -15 87 -15 71 0 75 -1
108 -35 19 -19 35 -41 35 -50 0 -11 8 -15 27 -13 27 3 28 1 34 -52 8 -62 62
-223 77 -228 15 -5 42 62 42 105 1 34 9 47 75 116 43 43 84 77 95 77 10 0 22
5 25 10 10 15 25 12 32 -7 4 -10 17 -33 30 -52 13 -19 23 -44 23 -57 0 -27 10
-30 28 -12 17 17 29 -3 38 -60 6 -41 24 -69 24 -38 0 31 20 25 66 -18 l46 -45
29 21 c39 29 38 71 -1 129 -49 72 -34 112 45 122 78 9 175 59 175 90 0 5 9 21
19 36 23 32 20 97 -6 141 -17 29 -16 30 8 56 22 25 23 26 3 20 -14 -4 -27 0
-39 14 -19 21 -19 21 10 45 31 25 65 33 65 15 0 -5 14 -10 30 -10 23 0 30 -5
30 -19 0 -11 5 -23 10 -26 6 -3 10 -19 10 -36 0 -31 19 -39 38 -16 9 10 6 23
-9 52 l-21 39 21 14 c11 8 21 20 21 27 0 17 48 48 61 40 16 -10 55 21 98 78
32 41 40 62 43 102 l3 50 -31 -2 c-20 -2 -37 4 -48 16 -17 18 -15 21 50 70 62
47 71 51 128 53 34 1 80 1 103 -1 34 -1 48 3 70 23 32 30 78 42 98 26 10 -9
20 -7 40 6 14 9 28 14 31 11 15 -14 -12 -45 -70 -82 -82 -51 -89 -63 -75 -119
l11 -44 54 55 c46 48 52 58 43 75 -9 17 -7 25 13 44 18 19 37 25 83 28 33 2
78 11 100 21 22 10 57 20 78 23 27 3 35 8 28 15 -16 16 -13 37 4 37 11 0 15
12 15 45 0 42 -1 44 -32 49 -94 14 -118 14 -127 -1 -7 -13 -14 -14 -46 -3 -20
7 -61 10 -91 8 -43 -4 -57 -1 -71 14 -12 14 -31 18 -80 18 -35 0 -79 6 -97 14
-19 8 -64 17 -100 21 -53 6 -70 4 -84 -8 -12 -10 -46 -16 -112 -18 -91 -4 -95
-3 -98 17 -2 17 -12 23 -44 28 -25 4 -45 2 -54 -5 -10 -8 -28 -9 -57 -3 -23 4
-90 8 -149 8 -59 1 -104 3 -100 7 4 3 28 14 55 23 26 10 47 22 47 27 0 12 -45
22 -76 16 -15 -2 -38 2 -53 9 -33 17 -39 17 -76 -3z"/>
<path d="M2160 6255 c0 -20 24 -25 116 -25 52 0 84 4 84 11 0 7 -23 8 -69 3
-53 -5 -76 -3 -100 9 -24 12 -31 13 -31 2z"/>
<path d="M1745 6250 c11 -5 27 -9 35 -9 13 -1 13 0 0 9 -8 5 -24 9 -35 9 l-20
0 20 -9z"/>
<path d="M1845 6250 c3 -5 16 -10 28 -9 21 0 21 1 2 9 -28 12 -37 12 -30 0z"/>
<path d="M2020 6249 c0 -5 5 -7 10 -4 6 3 10 8 10 11 0 2 -4 4 -10 4 -5 0 -10
-5 -10 -11z"/>
<path d="M4894 6218 c-58 -40 -63 -51 -29 -66 24 -11 26 -10 20 7 -7 24 16 48
70 72 36 17 37 19 14 19 -15 0 -48 -15 -75 -32z"/>
<path d="M6448 6243 c18 -2 45 -2 60 0 15 2 0 4 -33 4 -33 0 -45 -2 -27 -4z"/>
<path d="M1565 6200 c-16 -18 -17 -23 -5 -30 23 -15 41 -12 94 15 47 24 48 25
19 25 -17 0 -44 3 -59 6 -22 4 -34 0 -49 -16z"/>
<path d="M2107 6203 c-4 -3 -7 -17 -7 -29 0 -13 -5 -26 -10 -29 -15 -9 -2 -25
21 -25 25 0 24 -22 -1 -45 -16 -14 -23 -15 -34 -6 -8 7 -12 19 -9 27 3 8 0 14
-7 14 -8 0 -10 -8 -7 -21 6 -22 4 -22 -84 -16 -84 5 -91 4 -98 -14 -6 -19 -8
-19 -20 -5 -9 11 -30 16 -67 16 -30 0 -54 4 -54 9 0 9 -120 29 -180 31 -96 3
-180 -3 -197 -13 -6 -4 -44 -1 -85 7 -40 8 -129 20 -198 26 -134 13 -181 7
-241 -29 l-31 -19 46 -17 c52 -20 51 -38 -3 -34 -50 3 -61 1 -61 -11 0 -5 23
-10 50 -10 42 0 50 -3 50 -19 0 -14 -10 -21 -35 -25 -19 -4 -37 -11 -40 -15
-7 -13 5 -42 16 -35 5 3 9 2 9 -3 0 -14 52 -33 88 -33 31 0 34 -2 28 -25 l-6
-24 30 17 c16 9 30 22 30 29 0 16 54 53 77 53 17 -1 17 -1 -1 -15 -20 -15 -20
-15 0 -15 11 0 25 5 31 11 15 15 158 -5 191 -27 12 -8 31 -12 41 -9 13 4 28
-4 47 -26 16 -17 37 -40 47 -50 9 -11 17 -22 17 -25 0 -4 13 -22 30 -41 17
-18 30 -39 30 -46 0 -7 10 -18 21 -26 19 -11 21 -11 16 3 -8 20 -3 20 28 0 29
-19 34 -48 8 -40 -16 5 -18 -2 -16 -81 1 -72 6 -95 29 -141 15 -30 41 -63 60
-75 18 -12 41 -40 53 -62 16 -32 20 -35 20 -17 1 35 28 26 51 -18 15 -30 43
-66 89 -120 18 -22 39 -59 45 -82 11 -39 19 -47 82 -80 50 -27 76 -35 97 -31
21 4 35 0 55 -20 15 -15 42 -30 60 -33 24 -5 39 -17 54 -43 12 -20 35 -47 52
-61 29 -24 29 -13 -1 21 -8 10 -12 35 -11 65 l3 49 -47 3 c-47 3 -47 3 -42 35
3 18 10 45 15 61 5 16 7 31 5 34 -12 11 -43 -11 -53 -39 -11 -28 -15 -30 -55
-27 -38 3 -45 7 -66 43 -20 35 -22 48 -16 104 3 36 8 70 10 76 8 19 70 44 98
39 13 -2 28 0 31 6 7 11 57 13 103 4 25 -5 34 -15 52 -58 23 -53 40 -49 21 6
-20 57 -14 81 34 128 39 39 45 49 45 87 0 24 3 42 8 42 20 -3 31 3 37 20 3 10
16 22 28 25 12 3 27 15 32 28 6 13 32 33 63 47 56 26 60 32 37 55 -19 19 -19
24 3 29 14 4 13 5 -4 6 -12 0 -38 -10 -58 -24 -38 -26 -49 -21 -18 9 50 49 65
56 120 56 86 0 167 45 116 64 -8 3 -28 4 -42 1 -22 -5 -24 -4 -12 6 14 10 12
15 -15 43 -16 17 -38 47 -48 66 l-19 34 -17 -23 c-16 -20 -24 -23 -55 -17 -26
5 -36 12 -36 25 0 25 -35 46 -87 54 l-42 7 -3 -37 c-2 -21 4 -51 12 -66 14
-27 14 -29 -12 -51 -20 -18 -26 -32 -25 -57 3 -64 -62 -41 -74 26 -3 13 -16
22 -39 27 -56 11 -134 42 -163 65 -35 27 -34 52 3 88 16 16 27 31 24 34 -3 3
14 10 38 16 29 7 46 17 53 32 7 17 19 23 50 25 35 3 40 6 42 31 1 21 -3 27
-19 27 -11 0 -29 -11 -40 -25 -24 -30 -48 -32 -55 -5 -4 15 -9 18 -18 10 -9
-8 -23 1 -54 31 -44 45 -48 62 -13 67 12 2 22 8 22 13 0 10 -43 12 -53 2z
m123 -184 c0 -11 -3 -11 -24 -3 -23 9 -20 23 4 17 11 -3 20 -9 20 -14z"/>
<path d="M2010 6185 c0 -9 10 -15 26 -15 23 0 24 2 10 15 -8 8 -19 15 -25 15
-6 0 -11 -7 -11 -15z"/>
<path d="M2223 6193 c-22 -8 -14 -28 17 -46 22 -14 49 -18 107 -16 61 1 87 -3
119 -19 48 -24 70 -47 55 -57 -6 -3 -15 -14 -21 -25 -8 -15 -3 -22 33 -43 55
-31 87 -43 70 -26 -21 21 -15 29 13 18 39 -14 43 -1 9 27 -24 19 -27 26 -17
36 10 10 18 10 42 -4 23 -13 31 -14 40 -3 8 9 3 15 -20 24 -16 6 -43 16 -60
22 -16 6 -27 16 -24 21 3 5 -8 14 -25 21 -17 6 -31 15 -31 19 0 4 -10 8 -23 8
-13 0 -32 7 -43 15 -13 9 -31 12 -57 8 -29 -4 -41 -2 -51 12 -18 26 -70 13
-63 -15 3 -12 0 -20 -8 -20 -17 0 -38 27 -30 40 6 10 -10 12 -32 3z"/>
<path d="M1693 6184 c-18 -8 -16 -24 2 -24 8 0 15 -4 15 -10 0 -5 18 -10 40
-10 22 0 40 -4 40 -9 0 -6 -15 -7 -34 -4 -18 3 -36 1 -40 -5 -3 -6 13 -13 38
-16 48 -8 196 3 196 13 0 4 -8 14 -17 23 -10 9 -24 24 -31 32 -16 20 -32 21
-32 1 0 -16 -12 -20 -24 -7 -4 4 -20 7 -34 8 -15 0 -45 3 -67 7 -22 3 -46 4
-52 1z"/>
<path d="M530 6067 c0 -21 6 -27 33 -32 17 -4 43 -13 57 -20 22 -11 28 -10 48
5 26 21 15 34 -22 24 -18 -4 -28 -2 -32 9 -3 8 -16 18 -29 21 -13 3 -30 9 -39
12 -12 5 -16 0 -16 -19z"/>
<path d="M3483 6023 c-13 -2 -23 -9 -23 -14 0 -5 10 -14 23 -19 25 -12 107 7
110 25 2 11 -72 16 -110 8z"/>
<path d="M2272 6004 c4 -21 18 -27 38 -14 17 10 14 15 -18 25 -19 6 -23 4 -20
-11z"/>
<path d="M9807 5989 c-33 -27 -37 -33 -23 -41 18 -10 16 -22 -10 -87 l-15 -35
-28 35 -29 34 -28 -57 -28 -58 -28 27 c-15 15 -30 25 -32 22 -8 -8 -56 -133
-56 -146 0 -30 19 -10 40 42 12 30 26 55 30 55 5 0 18 -12 29 -27 12 -14 23
-24 24 -22 2 2 14 28 27 57 13 28 26 52 30 52 3 0 16 -14 29 -31 13 -17 25
-28 29 -25 3 4 18 37 32 74 19 50 30 66 43 64 18 -3 20 17 8 71 l-6 28 -38
-32z"/>
<path d="M3766 5853 c-12 -12 -5 -31 19 -54 27 -26 33 -55 13 -62 -23 -7 12
-37 42 -37 41 0 45 26 10 63 -17 18 -33 41 -36 52 -6 23 -38 48 -48 38z"/>
<path d="M8508 5788 l-3 -33 -102 -3 -103 -3 0 -63 c0 -48 4 -67 18 -79 20
-19 62 -23 62 -7 0 6 18 10 40 10 22 0 40 -4 40 -10 0 -6 50 -10 129 -10 102
0 131 3 141 15 9 11 34 15 95 15 94 0 95 1 95 80 l0 49 -102 3 -103 3 -5 30
-5 30 -97 3 -97 3 -3 -33z m182 -13 c0 -25 -1 -25 -79 -25 -80 0 -98 8 -87 35
4 12 25 15 86 15 79 0 80 0 80 -25z"/>
<path d="M10789 5791 l-29 -29 0 -400 0 -399 25 -27 24 -26 409 0 409 0 21 23
c22 23 22 26 22 431 l0 407 -26 24 -27 25 -399 0 -400 0 -29 -29z m245 -66 c3
-13 11 -37 18 -52 11 -28 11 -28 23 22 7 33 17 51 28 53 22 4 22 -14 -3 -108
-11 -41 -20 -101 -20 -132 0 -51 -2 -58 -20 -58 -18 0 -20 7 -20 63 0 38 -10
93 -25 142 -30 96 -30 95 -6 95 12 0 21 -9 25 -25z m194 -63 c15 -10 32 -66
32 -108 0 -47 -18 -90 -43 -102 -18 -9 -13 -11 35 -11 l56 -1 -14 29 c-10 21
-14 55 -12 113 3 76 5 83 24 86 20 3 22 -2 29 -87 4 -50 11 -91 16 -91 5 0 9
41 9 90 0 89 0 90 25 90 l25 0 0 -110 c0 -99 -2 -110 -18 -110 -10 0 -23 5
-28 10 -8 8 -15 6 -24 -5 -11 -13 -5 -15 54 -15 79 0 119 -17 146 -63 17 -28
20 -51 20 -167 0 -118 -3 -139 -20 -168 -35 -57 -62 -62 -326 -62 -276 0 -294
4 -326 78 -17 38 -19 62 -16 171 5 189 26 211 210 211 82 1 99 3 83 12 -31 18
-35 28 -35 107 0 55 4 79 17 93 17 19 58 24 81 10z"/>
<path d="M11180 5560 c0 -47 4 -80 10 -80 6 0 10 33 10 80 0 47 -4 80 -10 80
-6 0 -10 -33 -10 -80z"/>
<path d="M10940 5345 c0 -9 11 -20 25 -25 25 -9 25 -11 25 -125 0 -96 3 -115
15 -115 12 0 15 16 15 83 0 117 8 157 31 157 12 0 19 7 19 20 0 18 -7 20 -65
20 -52 0 -65 -3 -65 -15z"/>
<path d="M11240 5220 c0 -133 1 -140 20 -140 11 0 20 5 20 12 0 6 9 3 20 -7
16 -15 22 -15 35 -5 21 17 22 192 1 209 -12 10 -19 8 -35 -8 l-21 -21 0 50 c0
43 -3 50 -20 50 -19 0 -20 -7 -20 -140z m74 -1 c8 -44 -4 -109 -20 -109 -11 0
-14 17 -14 70 0 53 3 70 14 70 7 0 16 -14 20 -31z"/>
<path d="M11081 5213 c2 -108 10 -139 34 -135 11 2 35 3 53 3 l32 -1 0 105 c0
98 -1 105 -20 105 -17 0 -19 -8 -22 -87 -2 -70 -6 -88 -18 -88 -12 0 -16 18
-18 88 -3 79 -5 87 -22 87 -18 0 -20 -7 -19 -77z"/>
<path d="M11400 5271 c-5 -11 -10 -51 -10 -90 0 -58 4 -75 20 -91 25 -25 52
-26 73 -2 21 23 22 62 2 62 -8 0 -15 -8 -15 -19 0 -21 -23 -45 -33 -34 -4 3
-7 24 -7 45 0 37 1 38 35 38 33 0 35 2 35 36 0 54 -15 74 -55 74 -24 0 -38 -6
-45 -19z m64 -27 c11 -29 6 -44 -14 -44 -16 0 -20 7 -20 30 0 32 23 42 34 14z"/>
<path d="M3703 5768 c-13 -22 -13 -48 0 -48 20 0 33 13 39 38 5 17 2 22 -12
22 -11 0 -22 -6 -27 -12z"/>
<path d="M6498 5745 c-3 -6 -2 -30 2 -55 5 -33 9 -40 14 -28 9 20 -6 99 -16
83z"/>
<path d="M2791 5662 c-16 -30 -15 -32 29 -32 44 0 53 14 18 26 -13 4 -26 11
-29 17 -4 5 -12 1 -18 -11z"/>
<path d="M9460 5588 c0 -5 98 -7 218 -6 217 2 192 6 -76 10 -78 2 -142 0 -142
-4z"/>
<path d="M8300 5455 l0 -140 208 1 207 0 3 127 3 128 -128 -3 c-126 -3 -127
-3 -133 -28 -5 -21 -12 -25 -40 -25 -31 0 -35 3 -38 28 -3 22 -8 27 -31 27
-15 0 -32 5 -39 12 -9 9 -12 -19 -12 -127z"/>
<path d="M8764 5577 c-2 -7 -3 -89 -2 -182 l3 -170 127 -3 127 -3 7 26 c3 13
4 80 3 147 -4 117 -5 125 -33 161 l-28 37 -100 0 c-71 0 -100 -4 -104 -13z
m193 -37 c4 -23 11 -30 29 -30 l24 0 0 -140 0 -140 -114 0 c-95 0 -115 3 -120
16 -8 21 -8 253 0 293 l7 31 84 0 84 0 6 -30z m37 -11 c-10 -16 -24 -9 -24 12
0 18 2 19 15 9 8 -7 12 -16 9 -21z"/>
<path d="M8838 5473 c18 -2 45 -2 60 0 15 2 0 4 -33 4 -33 0 -45 -2 -27 -4z"/>
<path d="M8853 5333 c26 -2 67 -2 90 0 23 2 2 3 -48 3 -49 0 -68 -1 -42 -3z"/>
<path d="M2650 5549 c0 -5 5 -7 10 -4 6 3 10 8 10 11 0 2 -4 4 -10 4 -5 0 -10
-5 -10 -11z"/>
<path d="M6487 5536 c-9 -23 15 -37 36 -21 18 13 18 14 -2 24 -25 14 -28 14
-34 -3z"/>
<path d="M6460 5439 c0 -29 -66 -87 -107 -95 -40 -8 -43 -19 -6 -22 45 -4 113
29 119 58 3 14 9 35 14 47 9 21 4 33 -12 33 -4 0 -8 -10 -8 -21z"/>
<path d="M9522 5198 c-18 -18 -17 -554 1 -565 17 -11 337 -14 337 -3 0 5 -8
11 -19 15 -10 3 -26 14 -36 25 -22 24 -35 26 -35 5 0 -12 -14 -15 -65 -15 -58
0 -65 2 -65 20 0 18 7 20 65 20 51 0 65 3 65 15 0 12 -19 15 -115 15 l-115 0
2 208 3 207 163 3 162 2 0 -159 c0 -129 3 -161 15 -171 13 -11 15 10 15 183 0
168 -2 196 -16 201 -31 12 -349 7 -362 -6z m258 -18 c0 -6 -32 -10 -76 -10
-47 0 -73 4 -69 10 3 6 37 10 76 10 39 0 69 -4 69 -10z m51 -3 c-1 -12 -15 -9
-19 4 -3 6 1 10 8 8 6 -3 11 -8 11 -12z"/>
<path d="M1750 5188 c0 -8 10 -23 22 -34 l21 -19 -18 30 c-26 41 -25 40 -25
23z"/>
<path d="M9600 5055 c0 -34 1 -35 40 -35 39 0 40 1 40 35 0 34 -1 35 -40 35
-39 0 -40 -1 -40 -35z"/>
<path d="M2422 5024 c10 -10 20 -15 24 -12 3 4 -5 12 -18 18 -22 12 -22 12 -6
-6z"/>
<path d="M2522 4979 c2 -6 7 -10 11 -10 4 1 14 1 23 1 8 0 12 5 9 10 -8 13
-48 13 -43 -1z"/>
<path d="M5885 4980 c3 -5 8 -10 11 -10 2 0 4 5 4 10 0 6 -5 10 -11 10 -5 0
-7 -4 -4 -10z"/>
<path d="M9580 4960 c0 -6 50 -10 130 -10 80 0 130 4 130 10 0 6 -50 10 -130
10 -80 0 -130 -4 -130 -10z"/>
<path d="M6098 4930 c-5 -36 7 -50 16 -17 8 31 7 47 -3 47 -5 0 -11 -14 -13
-30z"/>
<path d="M9632 4903 c37 -2 100 -2 140 0 40 1 10 3 -67 3 -77 0 -110 -1 -73
-3z"/>
<path d="M9790 4862 c0 -4 20 -40 45 -80 59 -95 59 -105 4 -76 -17 8 -33 13
-37 10 -13 -14 37 -48 99 -67 l68 -21 45 21 c52 23 56 35 25 97 -24 50 -40 57
-113 50 -54 -6 -54 -6 -86 34 -29 37 -50 50 -50 32z"/>
<path d="M9575 4850 c-4 -6 27 -10 84 -10 54 0 91 4 91 10 0 6 -35 10 -84 10
-47 0 -88 -4 -91 -10z"/>
<path d="M2494 4798 c-12 -6 -27 -21 -33 -34 -6 -13 -18 -24 -27 -24 -12 0
-15 -6 -10 -22 19 -67 18 -83 -12 -124 -37 -51 -48 -84 -32 -94 9 -6 8 -13 -4
-32 -14 -21 -14 -26 1 -53 33 -62 61 -121 73 -158 8 -26 24 -46 51 -62 69 -44
74 -60 59 -183 -6 -59 -15 -136 -19 -172 -3 -36 -10 -71 -15 -78 -13 -21 -25
-126 -15 -138 13 -15 0 -94 -16 -100 -7 -3 -10 -16 -7 -31 3 -15 -1 -29 -9
-35 -11 -7 -11 -11 -2 -14 7 -3 15 -21 19 -39 5 -29 9 -33 32 -30 15 2 30 4
35 4 4 1 7 8 7 16 0 8 14 30 31 50 30 34 31 37 15 54 -16 18 -16 20 8 46 17
19 26 39 26 61 0 30 3 34 25 34 18 0 25 5 25 19 0 14 12 22 45 30 53 13 65 33
42 72 l-16 28 44 -6 c43 -5 43 -5 66 38 12 24 32 55 45 68 13 13 24 36 24 50
0 40 27 71 87 97 62 28 81 60 90 153 4 42 15 71 44 117 40 62 48 96 27 113
-70 57 -80 63 -123 64 -29 1 -45 7 -45 15 0 20 -48 38 -62 24 -17 -17 -28 -15
-22 3 4 11 0 15 -16 15 -17 0 -21 4 -15 18 9 24 9 24 1 55 -10 35 -51 67 -85
67 -17 0 -43 17 -78 49 -46 44 -56 49 -98 49 -25 0 -52 6 -60 12 -19 16 -50 8
-50 -13 0 -9 -4 -17 -10 -17 -5 0 -10 9 -10 20 -1 26 -6 29 -31 18z"/>
<path d="M5690 4751 c0 -5 7 -15 17 -22 15 -13 15 -12 4 9 -12 23 -21 28 -21
13z"/>
<path d="M2350 4740 c0 -5 5 -10 10 -10 6 0 10 5 10 10 0 6 -4 10 -10 10 -5 0
-10 -4 -10 -10z"/>
<path d="M5350 4726 c0 -14 5 -26 10 -26 6 0 10 9 10 19 0 11 -4 23 -10 26 -6
4 -10 -5 -10 -19z"/>
<path d="M6177 4744 c-4 -4 -7 -17 -7 -28 0 -19 1 -19 17 -3 12 11 14 20 7 27
-6 6 -13 7 -17 4z"/>
<path d="M5726 4685 c9 -37 30 -82 45 -90 21 -13 -3 70 -28 95 l-24 25 7 -30z"/>
<path d="M8491 4696 c-41 -23 -50 -53 -51 -169 0 -61 5 -118 11 -130 18 -36
52 -57 92 -57 l37 0 0 -67 0 -66 69 66 69 67 115 0 c106 0 116 2 140 24 32 30
40 70 35 191 -3 95 -4 97 -36 126 l-32 29 -213 0 c-157 -1 -218 -4 -236 -14z
m460 -35 c23 -18 24 -25 24 -134 0 -157 0 -157 -155 -157 l-116 0 -39 -40
c-21 -22 -43 -40 -47 -40 -4 0 -8 18 -8 40 l0 40 -49 0 c-42 0 -53 4 -70 26
-18 23 -21 41 -21 131 0 97 2 106 25 128 24 25 25 25 228 25 187 0 207 -2 228
-19z"/>
<path d="M5968 4635 c-31 -30 -62 -55 -68 -55 -13 0 -13 -16 2 -56 9 -25 18
-33 42 -37 17 -2 37 -6 44 -8 20 -6 55 87 53 139 -1 26 2 42 10 42 8 0 8 4 -1
15 -7 8 -15 15 -19 15 -3 0 -32 -25 -63 -55z"/>
<path d="M5640 4662 c0 -5 9 -17 21 -28 11 -10 37 -48 56 -84 41 -74 70 -110
90 -110 22 0 14 45 -12 70 -14 13 -25 29 -25 36 0 7 -23 34 -50 60 -55 53 -80
70 -80 56z"/>
<path d="M10832 4620 c-31 -19 -72 -73 -72 -97 0 -6 31 5 70 25 l69 35 186 5
c113 3 185 1 185 -5 0 -5 -13 -21 -28 -36 -21 -21 -38 -27 -71 -27 l-42 0 29
-37 c53 -68 66 -148 36 -222 -9 -23 -41 -63 -75 -94 -83 -77 -81 -91 20 -187
92 -87 111 -121 114 -196 l2 -55 168 3 168 3 40 42 39 42 0 266 0 265 -80 0
-80 0 0 -86 0 -85 -32 3 -33 3 -3 83 -3 82 -84 0 -85 0 0 35 0 35 85 0 84 0 3
83 3 82 33 3 32 3 0 -85 0 -86 81 0 81 0 -4 70 c-3 56 -8 74 -28 95 -51 55
-52 55 -427 55 -330 0 -350 -1 -381 -20z"/>
<path d="M6316 4532 c-3 -6 -1 -14 5 -17 15 -10 25 3 12 16 -7 7 -13 7 -17 1z"/>
<path d="M6076 4504 c-9 -24 -8 -26 14 -19 13 4 20 2 20 -6 0 -7 3 -10 6 -7 7
8 -14 48 -25 48 -5 0 -12 -7 -15 -16z"/>
<path d="M10852 4504 c-36 -25 -52 -68 -52 -139 0 -135 93 -240 195 -221 122
23 123 259 2 347 -46 33 -108 39 -145 13z"/>
<path d="M6395 4490 c-10 -12 -25 -18 -32 -16 -29 12 -10 -5 21 -18 37 -15 61
-49 52 -72 -3 -8 1 -14 9 -14 9 0 24 -6 36 -12 17 -11 22 -10 33 5 19 25 53
21 72 -8 25 -39 38 -29 14 10 -12 19 -18 35 -15 35 22 0 -59 63 -108 85 -32
14 -59 25 -61 25 -1 0 -11 -9 -21 -20z"/>
<path d="M5830 4406 c0 -9 37 -22 83 -30 22 -4 37 -3 37 3 0 5 -13 12 -30 15
-16 3 -43 9 -60 12 -16 3 -30 3 -30 0z"/>
<path d="M9460 4280 c0 -29 1 -30 50 -30 l50 0 0 -153 c0 -106 4 -157 12 -165
8 -8 66 -12 194 -12 159 0 183 2 188 16 15 38 -10 44 -175 44 -152 0 -159 1
-159 20 0 19 7 20 150 20 144 0 150 1 164 23 14 21 56 161 56 185 0 9 -49 12
-185 12 l-185 0 -6 25 c-8 34 -32 45 -98 45 -56 0 -56 0 -56 -30z m467 -117
c-3 -16 -10 -40 -16 -55 l-11 -28 -140 0 -140 0 0 55 0 55 156 0 157 0 -6 -27z"/>
<path d="M6498 4284 c-5 -4 -8 -28 -8 -54 0 -25 -6 -55 -14 -65 -13 -17 -15
-17 -60 15 -41 30 -46 37 -41 61 5 21 2 29 -14 34 -33 10 -71 -6 -87 -36 -15
-30 -28 -36 -39 -19 -12 19 -45 10 -55 -14 -5 -14 -18 -30 -30 -36 -11 -6 -20
-17 -20 -24 0 -19 -29 -40 -83 -60 -67 -25 -80 -49 -68 -122 5 -33 14 -72 20
-87 6 -16 11 -43 11 -62 0 -39 17 -49 55 -29 15 8 37 14 48 14 11 0 41 10 66
22 29 14 65 22 99 23 47 0 57 -4 79 -29 22 -26 26 -27 40 -13 14 14 18 11 40
-31 35 -68 46 -75 100 -75 62 1 103 17 103 41 0 11 12 41 27 68 20 37 27 63
27 109 1 56 -2 64 -42 115 -23 30 -51 64 -62 75 -11 11 -27 44 -35 73 -9 28
-19 52 -24 52 -4 0 -12 14 -17 31 -5 17 -12 27 -16 23z"/>
<path d="M4730 4210 c-34 -37 -44 -54 -42 -75 2 -15 -1 -39 -7 -53 -22 -55 22
-122 48 -73 20 36 62 221 54 235 -6 11 -19 3 -53 -34z"/>
<path d="M8424 4250 c-58 -23 -70 -95 -25 -141 33 -32 58 -36 100 -14 32 16
41 33 41 75 0 42 -9 59 -41 75 -31 17 -44 18 -75 5z"/>
<path d="M10760 4040 c0 -60 2 -110 5 -110 2 0 30 7 62 15 31 8 76 15 100 15
l42 0 -20 35 c-16 26 -19 44 -15 69 l6 33 -49 6 c-27 3 -68 15 -90 27 l-41 20
0 -110z"/>
<path d="M8233 4104 c-15 -24 -15 -29 -2 -53 28 -49 109 -32 109 24 0 54 -77
75 -107 29z"/>
<path d="M8592 4118 c-7 -7 -12 -26 -12 -43 0 -38 16 -55 50 -55 50 0 78 60
44 94 -18 19 -65 21 -82 4z"/>
<path d="M8132 4048 c-28 -28 -1 -75 38 -63 14 4 20 15 20 35 0 36 -33 53 -58
28z"/>
<path d="M8732 4048 c-23 -23 -7 -68 24 -68 14 0 44 27 44 40 0 13 -30 40 -44
40 -6 0 -17 -5 -24 -12z"/>
<path d="M8393 4034 c-60 -30 -67 -53 -73 -222 l-5 -152 143 0 144 0 -4 148
c-2 122 -6 153 -21 175 -40 62 -118 83 -184 51z"/>
<path d="M8215 3955 c-24 -23 -25 -31 -25 -135 l0 -110 45 0 c28 0 47 5 50 13
2 6 5 67 7 135 l3 122 -28 0 c-16 0 -38 -10 -52 -25z"/>
<path d="M8621 3948 c5 -18 9 -79 9 -136 l0 -103 48 3 47 3 3 101 c3 97 1 103
-24 133 -19 23 -34 31 -59 31 -33 0 -33 0 -24 -32z"/>
<path d="M8110 3930 c-16 -16 -20 -33 -20 -95 l0 -75 30 0 c37 0 38 3 42 108
3 73 1 82 -14 82 -10 0 -27 -9 -38 -20z"/>
<path d="M8754 3928 c3 -13 6 -56 6 -95 l0 -73 30 0 30 0 0 79 c0 71 -2 82
-22 95 -33 23 -52 21 -44 -6z"/>
<path d="M10855 3904 c-22 -8 -53 -25 -69 -38 l-30 -23 20 -34 c11 -19 35 -44
54 -56 31 -21 44 -23 188 -23 l154 0 -7 36 c-9 53 -23 71 -89 115 -53 35 -64
39 -120 38 -33 0 -79 -7 -101 -15z"/>
<path d="M9571 3866 c-7 -8 -11 -27 -9 -43 3 -25 7 -28 43 -28 36 0 40 3 43
28 4 34 -13 57 -43 57 -12 0 -28 -6 -34 -14z"/>
<path d="M9882 3871 c-8 -5 -12 -22 -10 -42 3 -29 7 -34 31 -37 50 -6 75 38
41 72 -17 18 -42 20 -62 7z"/>
<path d="M7105 3690 c-3 -9 -2 -27 3 -40 8 -22 9 -22 29 13 l21 35 -24 5 c-16
3 -25 -1 -29 -13z"/>
<path d="M6562 3605 c9 -19 14 -22 25 -14 21 18 15 39 -12 39 -23 0 -24 -2
-13 -25z"/>
<path d="M7035 3597 c-17 -18 -41 -40 -55 -49 -21 -15 -23 -19 -10 -27 22 -16
23 -15 70 40 48 57 43 89 -5 36z"/>
<path d="M11285 3505 c-44 -7 -133 -21 -197 -30 l-118 -18 0 -163 0 -164 225
0 225 0 0 195 0 195 -27 -1 c-16 -1 -64 -7 -108 -14z"/>
<path d="M10725 3424 c-88 -12 -161 -23 -162 -23 -2 -1 -3 -62 -3 -136 l0
-135 170 0 170 0 0 154 c0 85 -3 156 -7 159 -5 2 -80 -7 -168 -19z"/>
<path d="M2575 3345 c0 -20 5 -25 24 -25 l24 0 -23 25 c-13 14 -24 25 -24 25
-1 0 -1 -11 -1 -25z"/>
<path d="M9255 3224 c-16 -8 -37 -21 -45 -28 -8 -7 -33 -16 -55 -19 -27 -4
-49 -16 -67 -37 -25 -27 -28 -38 -28 -96 0 -62 2 -68 34 -100 24 -24 43 -34
66 -34 18 0 45 -10 63 -24 71 -54 171 -55 235 -1 17 14 42 25 56 25 35 0 83
25 96 49 5 11 10 52 10 91 0 61 -3 74 -24 95 -13 13 -41 26 -62 30 -22 3 -46
10 -54 16 -8 5 -28 18 -45 29 -38 25 -136 27 -180 4z m316 -77 c55 -42 51
-189 -6 -211 -9 -3 -71 -6 -137 -6 -105 0 -119 2 -108 15 6 8 15 51 19 96 9
108 22 119 135 119 48 -1 87 -6 97 -13z m-262 -103 c1 -68 0 -74 -19 -74 -19
0 -21 5 -19 73 2 81 4 88 23 81 10 -4 14 -28 15 -80z m-159 54 l9 -23 0 23 c1
15 7 22 21 22 11 0 20 -7 20 -15 0 -8 5 -15 10 -15 6 0 10 7 10 15 0 8 9 15
20 15 25 0 25 5 -5 -127 -3 -14 -13 -23 -24 -23 -12 0 -21 9 -24 23 l-4 22 -8
-22 c-4 -13 -15 -23 -25 -23 -15 0 -21 13 -30 58 -6 31 -13 62 -15 69 -10 30
32 31 45 1z"/>
<path d="M9530 3105 c0 -9 5 -15 11 -13 6 2 11 8 11 13 0 5 -5 11 -11 13 -6 2
-11 -4 -11 -13z"/>
<path d="M9400 3045 c0 -51 3 -65 15 -65 8 0 15 9 15 19 0 15 8 21 33 23 17 2
32 8 32 13 0 6 -15 11 -32 13 -53 5 -37 42 18 42 10 0 19 5 19 10 0 6 -22 10
-50 10 l-50 0 0 -65z"/>
<path d="M9530 3025 c0 -25 5 -45 10 -45 6 0 10 20 10 45 0 25 -4 45 -10 45
-5 0 -10 -20 -10 -45z"/>
<path d="M10562 2923 l3 -137 130 -18 c72 -9 147 -20 168 -23 l37 -5 0 160 0
160 -170 0 -171 0 3 -137z"/>
<path d="M10970 2895 c0 -91 2 -165 4 -165 2 0 100 -13 217 -30 118 -16 217
-30 222 -30 4 0 7 88 7 195 l0 195 -225 0 -225 0 0 -165z"/>
<path d="M7480 2925 l-73 -76 25 -27 c13 -15 43 -58 66 -97 22 -38 72 -101
112 -140 l71 -70 64 -1 64 -1 84 86 c46 47 98 113 117 146 18 33 42 70 53 82
l20 23 -58 62 c-32 35 -64 69 -71 77 -12 13 -16 12 -33 -3 -10 -9 -17 -25 -14
-34 2 -10 -5 -26 -17 -37 -19 -17 -37 -20 -138 -20 -98 0 -122 3 -145 19 -20
13 -26 24 -21 38 5 18 -10 48 -26 48 -3 0 -40 -34 -80 -75z m90 34 c0 -5 -7
-9 -15 -9 -15 0 -20 12 -9 23 8 8 24 -1 24 -14z m385 12 c7 -12 -12 -24 -25
-16 -11 7 -4 25 10 25 5 0 11 -4 15 -9z m-307 -91 c18 0 22 -4 17 -19 -3 -11
-3 -31 1 -45 5 -21 12 -26 38 -26 25 0 41 -10 77 -47 80 -85 83 -91 69 -108
-12 -14 -17 -12 -46 16 -50 49 -54 25 -5 -25 40 -41 47 -66 17 -66 -7 0 -25
14 -41 30 -16 17 -33 30 -39 30 -5 0 2 -13 17 -28 52 -54 24 -80 -29 -27 -37
37 -62 41 -29 5 15 -16 16 -23 6 -33 -10 -9 -29 5 -91 73 -43 47 -91 108 -107
137 l-28 52 54 55 c51 51 56 54 75 40 11 -8 31 -14 44 -14z m340 -140 c-34
-62 -122 -159 -134 -147 -4 4 0 15 9 25 26 29 21 42 -38 109 -30 33 -55 66
-55 73 0 7 -13 11 -32 10 -53 -3 -58 -1 -58 24 0 22 6 24 75 35 42 6 86 11 98
11 13 0 32 7 43 15 18 13 23 11 72 -40 l53 -54 -33 -61z"/>
<path d="M10285 2646 c-79 -19 -143 -57 -196 -114 -108 -118 -101 -273 18
-383 62 -57 58 -101 -15 -167 l-37 -34 65 7 c70 7 135 31 185 69 25 19 45 24
120 28 109 5 196 41 261 107 56 56 77 103 82 184 4 57 0 75 -22 121 -72 148
-274 228 -461 182z"/>
<path d="M8633 2479 c-65 -25 -131 -88 -163 -154 -32 -67 -34 -179 -3 -246 30
-66 86 -124 151 -156 73 -36 181 -38 254 -6 65 30 132 94 159 156 31 70 32
181 2 248 -25 57 -87 120 -145 150 -63 33 -185 36 -255 8z m51 -139 c25 -47
26 -51 11 -74 -16 -24 -15 -26 25 -70 50 -54 75 -64 100 -41 17 16 21 15 64
-10 25 -15 48 -31 51 -35 10 -17 -64 -80 -93 -80 -47 0 -129 48 -183 108 -58
65 -75 93 -84 144 -6 32 -3 39 29 72 20 20 40 36 45 36 4 0 20 -22 35 -50z"/>
<path d="M10837 2310 c-8 -67 -60 -162 -116 -212 -59 -52 -150 -95 -237 -112
l-69 -13 40 -18 c22 -9 76 -20 120 -23 64 -4 86 -10 108 -28 33 -27 115 -54
166 -54 l36 0 -32 25 c-17 14 -37 41 -43 60 -12 35 -11 37 43 95 71 76 88 137
63 221 -13 45 -54 109 -69 109 -2 0 -7 -23 -10 -50z"/>
<path d="M9611 1829 c-24 -5 -71 -21 -105 -37 -315 -149 -348 -595 -58 -789
83 -56 144 -73 258 -73 161 0 290 66 374 192 228 342 -66 786 -469 707z m305
-204 c21 -14 27 -14 60 0 21 8 39 13 42 11 2 -3 -6 -19 -18 -35 l-21 -31 26
10 c40 15 40 13 1 -30 -26 -29 -36 -49 -36 -73 0 -129 -99 -275 -229 -336 -50
-23 -68 -26 -161 -26 -89 1 -113 4 -155 24 -43 20 -47 24 -30 31 11 5 34 9 50
10 17 0 50 10 75 21 l45 20 -41 18 c-59 27 -108 101 -56 84 10 -2 4 5 -11 17
-28 22 -48 55 -62 99 -7 22 -5 23 19 17 26 -6 27 -6 11 17 -26 40 -34 83 -24
122 l10 36 45 -41 c51 -47 128 -86 190 -96 l41 -6 7 41 c8 53 59 110 106 120
39 8 80 0 116 -24z"/>
<path d="M8632 1034 c-18 -9 -43 -31 -55 -48 -21 -30 -22 -39 -22 -281 0 -357
-18 -339 342 -340 239 0 253 1 280 21 58 43 63 66 63 319 0 253 -5 276 -63
319 -27 20 -44 21 -270 24 -209 2 -246 0 -275 -14z m394 -226 c68 -67 124
-125 124 -129 0 -4 -12 -9 -27 -11 -28 -3 -28 -3 -33 -98 l-5 -95 -62 -3 c-89
-4 -103 6 -103 73 0 52 -1 55 -25 55 -23 0 -24 -4 -27 -62 l-3 -63 -60 -3
c-106 -6 -105 -6 -105 103 l0 94 -32 3 -33 3 124 128 c68 70 129 127 134 127
5 0 65 -55 133 -122z"/>
</g>
</svg>
