<?xml version="1.0" standalone="no"?>
<!DOCTYPE svg PUBLIC "-//W3C//DTD SVG 20010904//EN"
 "http://www.w3.org/TR/2001/REC-SVG-20010904/DTD/svg10.dtd">
<svg version="1.0" xmlns="http://www.w3.org/2000/svg"
 width="1280.000000pt" height="722.000000pt" viewBox="0 0 1280.000000 722.000000"
 preserveAspectRatio="xMidYMid meet">
<metadata>
Created by potrace 1.15, written by Peter Selinger 2001-2017
</metadata>
<g transform="translate(0.000000,722.000000) scale(0.100000,-0.100000)"
fill="#ffc107" stroke="none">
<path d="M3530 7211 c-50 -16 -88 -41 -133 -86 l-45 -47 -18 27 c-9 14 -40 40
-68 56 -69 39 -177 41 -260 5 -97 -43 -194 -151 -211 -234 -22 -105 6 -192 84
-265 56 -52 96 -74 244 -133 136 -53 177 -83 177 -128 0 -37 25 -66 57 -66 22
0 41 20 63 65 15 31 172 191 342 350 132 123 165 201 122 291 -49 102 -254
198 -354 165z m143 -126 c29 -13 67 -39 85 -56 61 -60 40 -105 -111 -237 -56
-49 -143 -131 -193 -181 -87 -88 -91 -90 -108 -73 -23 26 -93 63 -216 113
-159 64 -215 110 -234 192 -24 103 112 239 241 241 62 1 97 -21 132 -84 23
-40 23 -45 11 -112 -16 -90 -9 -113 40 -138 49 -25 62 -25 85 0 16 17 17 31
11 110 -7 98 -2 118 51 180 62 74 120 86 206 45z"/>
<path d="M8814 6882 c-46 -30 -173 -467 -193 -662 -7 -69 -17 -103 -54 -183
-26 -54 -67 -127 -92 -162 -48 -68 -55 -94 -29 -120 31 -30 65 -15 114 51 25
34 53 76 63 95 l19 34 15 -30 c39 -77 123 -135 198 -135 47 0 109 27 147 63
l28 26 28 -29 c37 -36 106 -58 132 -42 15 9 27 7 60 -12 23 -13 47 -34 54 -47
14 -28 66 -38 85 -16 9 12 20 13 54 5 68 -15 176 -6 225 20 23 12 44 22 47 22
2 0 6 -13 10 -28 7 -34 45 -76 88 -99 54 -27 163 -29 269 -3 199 48 275 90
248 139 -21 41 -39 41 -165 -2 -106 -36 -131 -41 -212 -42 -108 0 -122 9 -130
79 -3 25 -4 46 -2 46 2 0 19 -4 37 -9 110 -32 264 116 266 256 2 88 -60 143
-159 143 -64 -1 -87 -14 -130 -75 -21 -28 -45 -50 -57 -52 -37 -6 -43 -20 -43
-103 l0 -78 -49 -44 c-72 -64 -89 -71 -167 -66 -37 2 -71 6 -74 9 -3 4 -3 25
1 48 6 38 12 45 54 66 64 32 108 71 142 124 33 52 36 91 9 115 -29 26 -52 16
-88 -38 -43 -66 -117 -126 -100 -82 9 24 31 621 23 650 -9 35 -50 52 -80 32
-21 -13 -22 -24 -35 -337 -18 -452 -11 -413 -79 -440 -30 -13 -70 -36 -89 -52
-42 -37 -68 -30 -85 24 -9 31 -9 54 1 102 16 84 17 173 1 192 -15 18 -64 20
-77 3 -6 -7 -16 -51 -23 -98 -17 -118 -36 -168 -85 -217 -33 -34 -50 -43 -76
-43 -66 0 -108 55 -129 168 -10 60 -9 66 34 204 61 191 112 395 127 501 11 77
10 89 -5 112 -16 24 -49 33 -72 17z m1204 -782 c4 -33 -49 -115 -90 -140 -36
-22 -47 -22 -61 2 -12 18 1 56 44 123 27 43 32 46 67 43 31 -3 37 -7 40 -28z"/>
<path d="M6117 6584 c-88 -21 -166 -61 -173 -89 -8 -31 12 -65 38 -65 11 0 61
14 110 31 58 20 103 29 131 27 42 -3 42 -3 45 -46 4 -59 -17 -118 -94 -256
-69 -124 -80 -169 -49 -192 42 -31 61 -17 119 89 110 199 141 287 134 378 -9
119 -100 162 -261 123z"/>
<path d="M6065 6358 c-81 -29 -219 -146 -317 -266 -72 -91 -110 -167 -139
-282 -18 -72 -21 -103 -16 -210 12 -278 133 -501 348 -640 170 -110 375 -115
587 -15 79 37 100 65 77 100 -19 30 -53 29 -128 -5 -222 -100 -416 -71 -574
87 -132 133 -203 304 -204 495 -1 189 52 317 189 460 46 48 109 106 140 130
49 38 61 43 107 43 58 0 85 16 85 50 0 52 -80 79 -155 53z"/>
<path d="M6795 5949 c-99 -16 -254 -38 -345 -49 -91 -12 -173 -23 -182 -26
-27 -8 -32 -44 -25 -218 8 -189 29 -340 56 -402 30 -66 47 -71 316 -77 363 -8
613 11 697 54 67 34 72 50 64 217 -12 247 -40 371 -102 451 -19 24 -34 47 -34
51 0 10 -136 30 -203 29 -34 0 -143 -14 -242 -30z m262 -102 c-16 -12 -87 -86
-159 -164 -72 -79 -135 -143 -140 -143 -16 0 -96 65 -193 159 l-95 90 33 6
c27 4 227 35 422 65 28 4 75 8 105 8 l55 1 -28 -22z m160 -64 c23 -56 41 -175
49 -321 l7 -131 -24 -10 c-60 -25 -178 -32 -502 -32 -188 1 -345 5 -350 10
-14 14 -36 163 -43 301 l-7 133 33 -19 c17 -10 75 -60 127 -111 103 -100 229
-193 262 -193 14 0 51 32 104 87 160 171 311 323 319 323 5 0 16 -17 25 -37z"/>
<path d="M4650 5648 c-45 -13 -145 -84 -194 -138 -40 -44 -66 -96 -66 -130 0
-11 -4 -20 -10 -20 -5 0 -10 11 -10 25 0 39 -37 125 -66 156 -38 40 -81 46
-140 20 -27 -12 -56 -29 -66 -38 -16 -14 -20 -13 -51 21 -55 58 -103 48 -159
-34 l-17 -25 0 31 c-1 37 -17 54 -52 54 -53 0 -59 -23 -59 -241 0 -117 4 -209
11 -228 19 -55 84 -52 107 6 6 15 24 82 40 148 16 66 37 138 46 160 l17 40 19
-35 c11 -20 19 -56 20 -85 1 -100 59 -172 117 -146 34 16 39 55 15 134 -19 65
-19 72 -5 94 18 27 69 57 83 48 17 -11 39 -107 54 -236 7 -69 19 -136 25 -147
16 -30 47 -37 78 -17 22 15 25 22 19 57 -4 21 -9 67 -12 101 l-6 62 21 -41
c31 -59 103 -127 168 -159 66 -32 162 -44 216 -26 51 17 103 79 123 146 19 68
13 102 -23 116 -38 14 -69 -9 -77 -60 -3 -21 -18 -53 -32 -70 -22 -26 -33 -31
-72 -31 -26 0 -64 9 -89 21 l-44 21 45 39 c111 98 182 318 124 383 -29 31 -53
37 -98 24z m4 -145 c-8 -32 -55 -128 -77 -157 -14 -19 -15 -18 -22 12 -3 18
-13 36 -22 40 -12 7 -13 12 -3 28 15 22 110 104 122 104 5 0 5 -12 2 -27z"/>
<path d="M1714 5608 c-56 -12 -117 -66 -151 -136 -25 -50 -28 -68 -27 -147 1
-116 19 -165 63 -165 48 0 61 30 48 115 -13 92 2 146 53 197 21 21 47 38 57
38 34 0 74 -40 104 -104 34 -72 46 -127 57 -269 5 -59 14 -113 20 -119 17 -17
64 -12 79 8 8 11 13 46 13 93 0 101 18 296 31 346 l11 40 25 -49 c32 -64 80
-252 89 -352 9 -101 40 -136 88 -101 15 11 20 35 27 123 15 176 37 254 74 254
21 0 71 -72 96 -139 11 -31 23 -90 26 -131 6 -85 23 -120 57 -120 32 0 56 30
56 71 l1 34 15 -27 c45 -85 194 -75 333 21 30 20 68 53 84 73 52 65 46 164
-12 183 -16 5 -19 12 -14 38 16 100 -164 161 -311 107 -62 -24 -116 -77 -116
-116 0 -76 66 -106 248 -112 77 -2 132 -8 132 -14 0 -18 -63 -69 -122 -99 -74
-37 -124 -39 -140 -4 -15 33 -51 42 -83 21 -24 -16 -25 -15 -25 3 0 42 -51
177 -86 228 -46 67 -87 93 -147 93 -49 0 -100 -32 -112 -70 -7 -22 -25 -27
-25 -7 0 29 -70 155 -99 180 -63 52 -136 23 -163 -64 -6 -22 -14 -39 -18 -39
-3 0 -16 13 -28 29 -52 71 -131 105 -208 89z m1182 -223 c17 -13 10 -14 -73
-15 -51 0 -93 4 -93 9 0 23 137 28 166 6z"/>
<path d="M7612 5549 c-58 -12 -89 -42 -77 -79 11 -33 35 -40 107 -28 123 22
197 -28 237 -157 39 -126 25 -275 -40 -416 -26 -55 -29 -70 -20 -88 7 -11 16
-21 22 -21 6 0 7 -4 4 -10 -3 -5 -17 -10 -30 -10 -37 0 -56 39 -67 137 -11 98
-18 113 -58 113 -45 0 -53 -20 -48 -118 6 -104 36 -182 82 -215 45 -32 125
-30 196 6 73 35 229 154 242 183 14 30 -13 74 -44 74 -12 0 -55 -26 -97 -58
-105 -80 -104 -80 -71 -10 60 130 76 302 40 442 -50 198 -188 291 -378 255z"/>
<path d="M3193 5509 c-129 -64 -100 -298 46 -363 49 -23 98 -16 141 21 17 14
32 24 34 22 2 -2 7 -56 11 -120 7 -116 7 -116 -17 -122 -30 -8 -176 -267 -214
-382 -50 -153 -21 -282 86 -378 89 -80 169 -72 216 23 45 90 57 203 51 502 -5
300 -41 756 -60 774 -17 16 -147 44 -203 44 -29 0 -66 -8 -91 -21z m165 -95
c27 -8 25 -25 -10 -107 -34 -79 -74 -85 -108 -16 -25 48 -26 104 -2 118 19 12
85 14 120 5z m79 -864 c-5 -201 -12 -256 -41 -295 -14 -20 -15 -19 -45 9 -103
98 -92 223 39 464 55 101 54 105 47 -178z"/>
<path d="M9292 5224 c-51 -36 -87 -152 -102 -331 -5 -65 -10 -125 -10 -134 0
-12 -13 -18 -54 -22 -73 -7 -150 -48 -179 -95 -23 -37 -23 -41 -23 -322 1
-252 3 -289 19 -317 28 -52 67 -67 188 -71 90 -4 108 -2 123 13 16 16 22 16
109 -1 123 -25 240 -25 290 0 54 26 74 72 58 125 -6 22 -22 53 -35 68 -20 24
-23 38 -22 104 1 55 6 82 17 95 48 55 52 110 11 155 l-29 32 21 38 c36 66 -1
118 -100 141 l-51 12 -7 114 c-11 199 -50 338 -108 387 -34 29 -83 33 -116 9z
m86 -179 c16 -58 32 -197 32 -285 0 -41 3 -85 6 -98 8 -27 46 -49 103 -58 l41
-7 -35 -38 c-19 -22 -35 -43 -35 -47 0 -19 32 -50 69 -67 23 -10 41 -22 41
-26 0 -5 -21 -20 -47 -35 -74 -42 -91 -61 -85 -92 7 -34 30 -52 60 -45 26 6
26 3 7 -60 -17 -56 -12 -73 26 -92 30 -16 53 -48 42 -59 -18 -18 -303 19 -324
42 -4 4 8 84 27 177 55 282 56 350 7 422 l-26 38 11 150 c7 82 19 174 27 204
15 48 18 51 29 35 7 -11 17 -37 24 -59z m-150 -433 c20 -25 11 -138 -27 -332
-17 -91 -34 -182 -37 -202 -5 -38 -5 -38 -50 -38 -89 0 -85 -15 -79 283 4 206
8 265 19 276 20 19 105 41 136 35 14 -3 31 -13 38 -22z"/>
<path d="M2402 4683 c-83 -40 -142 -151 -142 -264 l0 -59 -71 0 c-43 0 -81 -6
-97 -14 -15 -8 -43 -22 -62 -31 -98 -43 -128 -206 -64 -345 l25 -53 -28 -30
c-32 -33 -116 -77 -151 -77 -35 0 -122 49 -122 69 0 3 18 6 40 6 84 1 143 103
144 245 0 130 -42 203 -127 224 -41 10 -131 -19 -172 -56 -58 -50 -70 -81 -69
-185 l0 -92 -32 68 c-75 162 -150 219 -207 157 -19 -20 -24 -21 -35 -10 -17
19 -57 18 -76 -2 -17 -17 -18 -32 -7 -114 8 -51 7 -53 -8 -31 -72 105 -158
132 -199 62 -14 -24 -21 -28 -47 -24 -22 4 -35 -1 -49 -16 -19 -21 -19 -30 -8
-229 7 -114 17 -228 23 -253 13 -58 38 -84 74 -75 43 11 53 53 63 280 6 114
14 212 20 218 27 27 105 -186 118 -320 7 -72 24 -102 59 -102 25 0 55 29 55
53 0 10 10 17 27 19 46 5 53 34 53 238 1 162 2 183 15 166 20 -26 99 -217 152
-366 24 -68 49 -130 55 -137 13 -16 60 -17 76 -1 7 7 12 22 12 33 0 18 -34
126 -65 210 -5 11 6 1 23 -21 112 -152 288 -160 433 -21 41 39 49 43 87 39 81
-8 177 63 261 192 l43 65 53 -40 c54 -40 145 -79 188 -79 87 0 151 86 99 133
-25 22 -48 21 -72 -3 -11 -11 -26 -20 -32 -20 -22 0 -112 48 -147 78 l-34 29
25 55 c24 52 28 55 89 77 90 33 179 79 186 96 3 8 2 26 -1 40 -10 40 -47 42
-126 6 -39 -17 -72 -31 -74 -31 -2 0 0 17 5 38 21 89 2 175 -45 207 -27 20
-93 19 -134 -2z m78 -131 c0 -38 -26 -141 -38 -153 -4 -4 -22 -10 -39 -14
l-33 -7 0 46 c0 24 5 57 11 73 17 44 58 93 80 93 15 0 19 -7 19 -38z m-157
-329 l24 -38 -36 -58 c-115 -179 -198 -220 -247 -120 -25 50 -27 175 -3 198
15 15 19 15 54 1 58 -25 85 -21 98 14 10 27 19 32 74 39 7 0 23 -16 36 -36z
m-578 7 c10 -11 20 -41 23 -68 5 -57 -22 -165 -41 -160 -7 3 -23 26 -36 52
-19 35 -32 49 -53 53 -22 4 -28 11 -28 32 0 41 22 74 60 93 44 23 53 22 75 -2z"/>
<path d="M7205 4614 c-11 -2 -212 -8 -446 -14 -476 -12 -690 -24 -1284 -75
-225 -19 -428 -35 -450 -35 -40 0 -41 0 -37 33 3 23 -2 38 -17 51 -41 37 -91
-1 -91 -70 0 -23 -3 -24 -62 -24 -78 0 -112 -16 -116 -53 -6 -46 12 -57 94
-57 l74 0 2 -37 c1 -21 2 -76 3 -123 1 -47 7 -161 14 -255 6 -93 18 -271 26
-395 53 -794 116 -1387 155 -1460 21 -40 42 -41 146 -10 178 53 247 64 404 63
122 0 178 -7 355 -39 185 -33 229 -38 370 -38 116 0 191 5 270 19 86 16 154
20 315 19 204 0 282 -5 710 -46 156 -15 300 -22 470 -22 274 -1 330 7 386 56
60 53 66 93 71 443 10 662 -80 1629 -167 1810 -69 143 -296 229 -667 255 -136
9 -481 12 -528 4z m552 -115 c302 -25 495 -92 545 -190 53 -105 117 -655 149
-1284 12 -251 7 -762 -8 -810 -16 -50 -49 -59 -228 -63 -88 -2 -156 0 -152 4
4 5 25 7 47 5 61 -4 97 42 68 88 -9 15 1 35 67 134 46 69 78 126 78 141 0 37
-22 58 -54 54 l-27 -4 48 96 c87 173 97 258 34 274 -55 14 -144 -62 -347 -295
-50 -59 -93 -106 -95 -104 -3 3 141 276 257 485 95 172 107 211 70 230 -38 21
-64 4 -108 -70 -23 -38 -44 -70 -46 -70 -2 0 25 56 60 125 68 130 78 174 48
207 -48 53 -111 1 -326 -267 -117 -147 -123 -150 -37 -20 75 113 186 297 224
374 39 76 45 121 20 145 -34 34 -79 11 -169 -86 l-67 -73 41 67 c65 108 91
165 91 201 0 69 -53 77 -127 17 -57 -45 -156 -155 -496 -552 -131 -153 -242
-278 -247 -278 -19 0 -20 19 -1 29 10 6 23 23 29 38 6 16 91 132 189 259 230
297 219 284 232 284 26 0 89 41 128 83 70 75 103 160 103 263 0 65 -11 84 -48
84 -38 0 -62 -17 -163 -117 l-97 -95 -7 41 c-6 37 -3 47 41 112 58 88 75 134
62 168 -12 32 -25 41 -60 41 l-28 0 0 96 c0 114 -8 134 -55 134 -52 0 -64 -33
-76 -201 l-10 -141 -62 -69 c-34 -38 -64 -64 -66 -58 -8 25 13 81 48 126 67
84 74 120 31 143 -27 14 -60 -1 -101 -46 -34 -38 -36 -39 -96 -36 -76 5 -121
-15 -158 -68 -36 -52 -55 -121 -55 -201 0 -37 -3 -70 -7 -72 -5 -3 -6 41 -3
96 5 96 7 105 43 162 51 83 50 135 -4 135 -20 0 -42 -13 -79 -49 -27 -27 -50
-55 -50 -62 -1 -18 -230 -311 -248 -317 -7 -2 20 42 60 97 98 137 106 148 162
240 38 62 54 81 71 81 12 0 34 9 49 21 34 27 33 68 -3 134 -23 42 -33 51 -60
53 -41 4 -111 -48 -224 -168 -65 -69 -73 -75 -44 -34 43 60 87 151 87 179 0
38 -28 65 -69 65 -55 0 -114 -43 -253 -185 -68 -69 -130 -125 -139 -125 -8 0
-31 -9 -52 -19 -20 -10 -37 -17 -37 -15 0 2 13 26 30 54 40 68 46 95 26 125
-32 49 -61 36 -170 -77 -69 -72 -89 -89 -68 -58 92 138 97 217 14 209 -23 -3
-37 4 -58 27 -36 38 -40 93 -9 99 71 14 349 27 1125 54 359 12 675 12 817 0z
m-2133 -91 c-16 -12 -72 -60 -124 -107 -52 -47 -88 -77 -79 -66 87 107 110
139 115 160 6 25 22 31 83 34 l34 1 -29 -22z m-279 -33 c-46 -40 -55 -42 -55
-16 0 11 -6 23 -12 28 -8 5 6 10 37 14 28 3 55 6 60 7 6 1 -8 -14 -30 -33z
m-207 -33 c-89 -67 -92 -69 -79 -44 6 11 11 32 11 46 0 32 23 45 84 46 l49 0
-65 -48z m611 -81 c9 -15 -1 -29 -67 -87 -42 -38 -70 -60 -62 -49 8 11 37 50
64 88 27 37 51 67 52 67 2 0 8 -8 13 -19z m595 -143 c-63 -83 -61 -81 -74 -73
-8 5 9 29 51 71 35 35 65 64 67 64 2 0 -18 -28 -44 -62z m-894 -27 c0 -5 -59
-82 -131 -172 -137 -170 -192 -249 -201 -286 -8 -32 18 -63 52 -63 29 0 47 13
177 126 l48 42 17 -23 c17 -23 17 -25 -25 -77 -154 -190 -170 -223 -122 -254
35 -23 56 -12 158 80 233 209 231 205 -40 -110 -66 -78 -126 -151 -132 -162
-29 -54 2 -100 57 -88 18 4 134 115 338 323 l312 317 16 -33 17 -32 -121 -145
c-200 -241 -626 -820 -657 -893 -27 -62 17 -107 74 -77 16 8 51 41 78 75 28
33 53 60 56 60 4 1 10 -23 13 -51 8 -59 28 -88 62 -88 38 0 57 28 50 74 -4 23
-9 77 -13 121 -5 72 -3 82 15 99 21 18 21 18 36 -35 9 -30 20 -108 26 -173 13
-150 17 -165 45 -172 24 -6 65 10 65 26 0 5 12 2 28 -6 15 -7 33 -14 40 -14
17 0 92 38 115 58 21 19 30 11 45 -44 6 -22 23 -51 37 -64 24 -23 28 -24 53
-9 15 8 33 32 42 55 8 23 21 48 29 57 12 15 16 14 45 -8 40 -30 108 -55 151
-55 17 0 59 14 92 30 59 30 61 30 99 14 21 -9 67 -17 101 -18 34 -1 65 -4 69
-8 15 -15 51 -7 96 21 30 19 50 26 59 20 31 -20 93 -10 131 21 29 24 37 27 42
15 3 -8 1 -27 -5 -42 -22 -58 14 -94 77 -79 26 7 136 109 167 155 15 22 18 23
47 11 22 -9 29 -17 25 -29 -4 -9 -9 -30 -12 -48 -4 -26 -1 -34 21 -48 36 -24
70 -8 134 59 l49 52 35 -37 36 -37 -16 -48 c-13 -41 -14 -50 -1 -73 24 -43 66
-40 122 9 43 39 46 40 37 15 -5 -14 -10 -42 -10 -60 0 -43 36 -71 77 -60 34 8
135 106 288 279 66 74 121 133 123 131 2 -2 -39 -84 -92 -182 -107 -200 -156
-310 -156 -347 0 -24 -3 -26 -47 -26 -27 0 -145 9 -263 19 -437 39 -519 45
-705 45 -141 0 -221 -5 -310 -19 -194 -32 -382 -27 -635 17 -113 20 -245 39
-295 43 -111 8 -258 -7 -390 -41 -55 -15 -110 -29 -121 -31 -20 -4 -22 1 -33
74 -36 255 -111 1130 -136 1588 l-6 110 45 22 44 21 -34 -56 c-49 -83 -44
-142 13 -142 47 0 120 53 292 212 86 80 91 84 91 69z m570 -97 c-18 -21 -24
-10 -8 15 7 12 14 17 16 11 2 -6 -2 -17 -8 -26z m974 -35 c-24 -27 -30 -15 -9
18 12 17 20 23 23 15 2 -7 -4 -22 -14 -33z m-792 -21 c-9 -9 -12 -7 -12 12 0
19 3 21 12 12 9 -9 9 -15 0 -24z m290 -10 c-7 -7 -12 -8 -12 -2 0 14 12 26 19
19 2 -3 -1 -11 -7 -17z m-888 0 c-4 -7 -30 -44 -57 -81 -45 -62 -50 -66 -63
-50 -11 16 -6 25 49 81 57 57 89 80 71 50z m528 -78 c-69 -87 -65 -84 -73 -63
-13 32 -9 51 15 81 19 22 33 28 60 28 l34 -1 -36 -45z m884 -108 c-18 -19 -29
-23 -36 -16 -8 8 -3 20 16 43 24 29 28 31 37 16 7 -13 3 -24 -17 -43z m-395
-242 c-322 -401 -456 -550 -476 -528 -2 2 105 156 237 343 203 289 247 345
291 375 l52 35 6 -40 c6 -39 4 -43 -110 -185z m472 136 c-232 -308 -247 -325
-261 -305 -12 18 -5 29 89 137 95 108 176 192 186 192 3 0 -4 -11 -14 -24z
m-728 -76 c-69 -83 -104 -113 -43 -37 18 23 49 61 67 85 18 24 36 41 38 38 3
-3 -25 -41 -62 -86z m550 80 c3 -5 -43 -65 -102 -132 -59 -68 -152 -176 -207
-241 -101 -120 -142 -160 -64 -63 24 30 113 143 198 250 85 107 158 195 162
196 4 0 10 -4 13 -10z m333 -49 c-13 -15 -77 -91 -143 -168 -66 -76 -147 -171
-180 -210 -111 -133 -67 -66 107 164 142 186 180 229 204 234 16 4 30 7 32 8
2 0 -7 -12 -20 -28z m-1004 7 c-5 -7 -85 -112 -179 -233 -94 -121 -199 -258
-234 -305 -36 -47 -66 -87 -68 -89 -1 -2 -11 3 -20 12 -10 8 -30 17 -45 19
-24 3 -10 22 217 293 133 160 253 296 266 302 32 17 73 17 63 1z m1255 -350
c-78 -117 -165 -238 -194 -268 -30 -30 -64 -75 -76 -100 -23 -46 -145 -213
-159 -218 -17 -6 -21 40 -9 94 11 47 24 69 93 147 45 51 170 197 280 325 109
128 200 232 202 232 3 0 -59 -96 -137 -212z m-376 20 c-52 -68 -77 -97 -81
-93 -5 5 76 105 85 105 3 0 1 -6 -4 -12z m-403 -85 c-5 -38 -21 -68 -78 -146
-39 -55 -89 -111 -109 -126 -46 -33 -87 -91 -108 -151 -19 -55 -74 -162 -89
-173 -17 -12 -80 -1 -110 18 l-27 18 21 22 c14 15 37 24 67 28 33 3 54 13 77
36 27 27 31 39 32 87 l1 56 159 189 c87 104 162 189 165 189 3 0 3 -21 -1 -47z
m964 0 c-90 -139 -128 -192 -135 -187 -12 7 -8 12 76 122 69 91 94 118 59 65z
m356 -93 c-6 -11 -13 -20 -16 -20 -2 0 0 9 6 20 6 11 13 20 16 20 2 0 0 -9 -6
-20z m-133 3 c-96 -165 -281 -463 -288 -463 -12 0 -42 47 -37 59 1 6 75 100
163 211 141 176 177 219 162 193z m-1003 -117 c-35 -50 -39 -53 -42 -31 -2 17
8 38 30 64 48 58 57 33 12 -33z m-894 0 c-32 -48 -50 -64 -50 -47 0 11 68 91
77 91 2 0 -10 -20 -27 -44z m1430 -154 c0 -8 -15 -38 -32 -68 -24 -38 -39 -54
-55 -54 -12 0 -24 4 -27 9 -3 4 18 40 47 78 48 66 66 75 67 35z m-1409 -18
c-11 -15 -21 -24 -21 -20 0 10 34 55 39 51 2 -2 -6 -16 -18 -31z m689 -41 c0
-38 -36 -108 -72 -138 -27 -23 -76 -33 -91 -19 -3 4 27 43 68 88 41 44 75 84
75 88 0 5 5 8 10 8 6 0 10 -12 10 -27z"/>
<path d="M541 4198 c-24 -11 -52 -35 -62 -52 -26 -42 -25 -107 1 -131 30 -28
71 -10 85 35 15 51 23 60 54 60 59 0 91 -81 93 -231 1 -147 -34 -235 -84 -212
-19 8 -22 18 -23 69 -2 71 -27 125 -84 177 -77 69 -161 57 -161 -24 0 -49 19
-95 70 -170 l40 -59 -42 -30 c-92 -67 -168 -63 -232 12 -56 65 -79 136 -80
249 -1 82 2 100 18 118 23 25 41 26 91 6 42 -18 70 -13 86 16 17 33 0 59 -54
85 -92 42 -166 27 -211 -44 -34 -55 -50 -133 -43 -216 20 -228 171 -404 328
-383 51 7 157 58 188 91 l23 24 41 -19 c68 -30 103 -24 159 29 47 44 70 122
76 255 3 93 1 133 -13 183 -20 76 -66 149 -106 169 -40 21 -107 18 -158 -7z"/>
<path d="M2647 3862 c-23 -26 -62 -123 -86 -218 -73 -285 -87 -733 -31 -1003
26 -126 61 -160 111 -110 15 15 19 28 14 47 -44 172 -60 397 -45 635 17 260
43 392 116 579 18 45 18 47 0 67 -24 26 -58 27 -79 3z"/>
<path d="M2935 3710 c-42 -16 -126 -197 -161 -347 -23 -100 -33 -284 -23 -420
14 -186 66 -411 105 -454 24 -26 60 -24 79 5 14 21 14 30 -9 102 -83 267 -95
543 -36 780 11 43 43 125 71 182 44 87 50 107 41 126 -12 26 -39 36 -67 26z"/>
<path d="M9121 3539 c-49 -52 -37 -240 41 -644 35 -183 34 -227 -7 -452 -27
-141 -25 -165 15 -178 44 -14 63 14 85 125 l8 35 23 -50 c63 -131 176 -149
284 -44 l41 40 47 -49 c80 -82 175 -92 299 -32 70 35 164 129 184 185 15 41
22 43 37 11 6 -14 28 -43 48 -65 70 -79 135 -46 194 96 49 118 78 171 99 183
29 15 30 14 14 -32 -8 -24 -15 -73 -15 -110 0 -153 115 -290 278 -333 78 -20
122 -19 198 6 88 29 165 98 206 184 33 69 31 93 -10 115 -30 16 -56 -3 -85
-59 -27 -55 -72 -104 -119 -129 -50 -27 -159 -23 -220 8 -53 27 -109 86 -125
131 l-10 29 31 -16 c38 -20 101 -14 130 13 56 50 89 189 69 285 -31 147 -124
179 -218 74 -33 -36 -43 -41 -84 -43 -59 -2 -98 -22 -143 -74 -31 -37 -50 -75
-108 -219 l-15 -35 -35 75 c-20 41 -52 122 -73 180 -49 136 -80 165 -126 119
-12 -12 -19 -29 -16 -40 3 -10 4 -19 4 -19 -1 0 -25 9 -54 20 -66 25 -213 43
-283 35 -58 -7 -112 -28 -130 -50 -26 -31 -38 -123 -28 -220 9 -89 8 -98 -12
-130 -25 -40 -85 -95 -105 -95 -18 0 -44 27 -57 59 -5 14 -22 81 -38 147 -28
115 -29 137 -33 385 -3 224 -7 281 -26 374 -12 60 -29 125 -37 145 -32 76 -84
101 -123 59z m1634 -769 c11 -65 -13 -180 -38 -180 -6 0 -26 14 -44 31 -31 31
-32 33 -18 65 18 43 73 124 85 124 4 0 11 -18 15 -40z m-825 -35 c97 -26 149
-87 136 -157 -16 -88 -138 -203 -226 -215 -59 -8 -101 16 -134 78 -26 47 -27
50 -12 93 24 71 23 148 -3 184 -16 22 -18 32 -9 36 22 10 190 -3 248 -19z"/>
<path d="M3163 3399 c-49 -18 -122 -220 -138 -379 -7 -71 7 -212 30 -300 16
-63 45 -93 78 -81 39 15 42 33 22 133 -25 117 -26 268 -2 357 10 35 33 99 52
143 26 61 32 85 25 99 -15 27 -41 38 -67 28z"/>
<path d="M3243 3190 c-44 -18 -56 -53 -48 -138 3 -42 6 -96 6 -120 -1 -52 24
-133 50 -161 30 -32 81 -28 111 7 13 16 36 32 50 35 14 4 47 26 73 50 l47 42
-1 69 c-1 89 -6 103 -41 121 -16 8 -31 23 -34 33 -7 22 -123 72 -164 71 -15 0
-37 -4 -49 -9z"/>
<path d="M1816 2138 c-9 -12 -14 -31 -11 -42 2 -12 32 -160 65 -331 72 -365
136 -662 149 -698 18 -48 86 -47 98 1 3 14 -4 90 -17 169 -28 175 -25 261 10
298 32 34 81 33 145 -4 137 -80 222 -249 246 -491 7 -63 16 -121 22 -128 16
-20 70 -11 82 14 15 30 2 188 -23 291 -60 247 -218 429 -389 450 -58 6 -111
-8 -152 -43 l-29 -24 -51 260 c-28 143 -55 269 -61 280 -15 28 -64 27 -84 -2z"/>
<path d="M11633 2108 c-23 -30 -23 -49 2 -74 24 -24 27 -24 197 -24 141 0 178
3 196 16 24 17 30 62 10 82 -17 17 -392 17 -405 0z"/>
<path d="M3135 2000 c-27 -30 -22 -115 20 -365 l5 -30 -108 1 c-59 1 -113 -2
-121 -6 -8 -4 -33 -1 -55 7 -161 59 -279 -29 -293 -219 -9 -117 22 -258 73
-340 27 -42 56 -64 102 -77 41 -12 99 17 132 66 13 21 25 40 27 42 2 2 12 -4
22 -13 47 -43 161 -59 224 -32 42 18 71 50 97 110 l22 48 33 -75 c51 -119 90
-181 117 -191 36 -13 54 -3 78 45 22 42 22 42 2 68 -10 14 -28 27 -39 29 -15
2 -29 24 -53 80 -45 106 -110 301 -110 329 0 21 4 23 55 23 30 0 55 -2 55 -4
0 -2 -4 -27 -10 -56 -29 -151 109 -445 241 -516 25 -14 56 -19 114 -19 74 0
85 3 155 40 54 29 106 70 188 149 62 60 115 119 118 132 9 34 -12 64 -44 64
-22 0 -52 -23 -138 -108 -158 -156 -258 -201 -344 -157 -50 26 -143 158 -123
174 4 4 39 20 78 36 89 37 170 112 180 167 11 56 -26 125 -87 162 -55 33 -153
46 -210 27 -28 -9 -40 -9 -64 4 -18 9 -56 15 -101 15 l-71 0 -7 53 c-14 119
-50 279 -69 314 -26 46 -62 55 -91 23z m-296 -496 c9 -3 11 -12 6 -32 -19 -73
-23 -150 -13 -223 10 -73 10 -79 -13 -120 -14 -24 -31 -44 -39 -44 -63 0 -118
283 -72 375 26 53 63 65 131 44z m352 -31 c23 -59 -6 -258 -45 -318 -28 -42
-122 -30 -167 21 -16 18 -15 26 6 111 13 51 26 119 30 152 l7 61 79 0 c77 0
80 -1 90 -27z m517 -15 c12 -12 22 -27 22 -34 0 -21 -61 -64 -134 -95 -77 -33
-80 -31 -81 58 0 41 5 57 24 77 13 14 33 26 45 28 36 6 100 -12 124 -34z"/>
<path d="M12107 1812 c-14 -16 -17 -42 -17 -163 0 -168 3 -183 37 -198 37 -17
70 7 78 56 11 67 36 158 44 166 9 9 50 -69 100 -193 70 -171 165 -202 285 -91
58 54 166 215 166 248 0 13 -11 30 -25 39 -39 26 -63 8 -122 -88 -47 -76 -120
-158 -141 -158 -18 0 -42 39 -82 135 -75 182 -113 229 -185 230 -26 1 -52 8
-63 18 -24 22 -55 22 -75 -1z"/>
<path d="M11944 1792 c-19 -12 -33 -48 -33 -83 0 -19 3 -116 7 -216 7 -162 10
-185 28 -210 31 -41 71 -38 101 6 30 44 31 106 3 121 -19 10 -20 21 -20 158 0
148 -9 209 -32 224 -16 10 -40 10 -54 0z"/>
<path d="M5485 1754 c-15 -15 -16 -37 -14 -173 l3 -156 -52 -53 c-90 -89 -116
-184 -69 -252 21 -32 80 -71 125 -82 18 -5 20 -17 27 -144 4 -77 10 -183 14
-236 6 -94 6 -98 -14 -98 -64 0 -204 110 -240 190 -22 48 -55 62 -85 35 -28
-25 -25 -61 10 -121 54 -95 200 -198 299 -211 44 -6 42 -2 55 -117 7 -59 20
-76 56 -76 43 0 55 24 57 114 l2 80 34 12 c143 50 275 229 285 387 6 98 -10
152 -62 203 -52 53 -119 74 -233 74 l-83 0 0 33 c0 17 -3 69 -7 114 l-6 83 36
15 c20 8 59 15 87 15 62 0 82 -18 104 -93 9 -30 23 -58 32 -61 30 -12 54 -6
69 18 13 20 14 31 4 72 -22 92 -62 140 -135 164 -37 13 -152 9 -186 -5 -17 -7
-18 2 -18 111 0 76 -5 128 -13 144 -15 31 -58 38 -82 14z m5 -539 c0 -36 -3
-65 -7 -65 -19 1 -43 29 -43 50 0 24 29 80 42 80 4 0 8 -29 8 -65z m309 -211
c55 -22 71 -50 71 -126 0 -70 -34 -155 -86 -217 -33 -39 -110 -91 -134 -91
-18 0 -19 10 -36 328 l-7 122 76 0 c47 0 92 -6 116 -16z"/>
<path d="M7991 1715 c-54 -17 -86 -46 -117 -107 -69 -135 -121 -499 -78 -542
33 -33 256 -13 317 28 28 20 32 27 31 68 0 38 -7 55 -37 94 -42 54 -44 64 -19
87 28 25 131 68 170 70 47 3 51 -14 21 -105 -21 -65 -80 -176 -196 -365 -119
-193 -124 -404 -14 -514 71 -72 209 -103 262 -60 25 20 37 95 38 242 2 177 46
288 171 430 111 126 134 175 128 283 -3 68 -9 91 -38 144 -61 114 -185 201
-347 242 -89 23 -226 26 -292 5z m272 -110 c121 -31 235 -114 277 -199 26 -55
27 -134 0 -186 -11 -22 -52 -74 -90 -117 -79 -87 -140 -196 -165 -293 -10 -36
-20 -127 -24 -202 -4 -75 -10 -140 -13 -143 -14 -14 -71 8 -103 41 -38 38 -51
92 -42 178 8 79 38 152 106 256 129 198 212 402 197 483 -9 49 -41 85 -85 97
-62 17 -172 -11 -257 -65 -114 -73 -129 -140 -54 -252 l21 -31 -66 -7 c-36 -4
-69 -5 -72 -1 -11 11 16 197 41 290 29 103 53 148 86 157 45 13 185 9 243 -6z"/>
<path d="M10742 1719 c-67 -25 -68 -219 -3 -434 14 -44 21 -112 26 -253 7
-189 8 -193 31 -209 22 -14 26 -14 49 1 23 15 25 22 25 101 0 47 1 85 3 85 2
0 26 -20 53 -45 85 -79 210 -122 276 -96 35 13 68 66 68 109 0 17 2 32 4 32 1
0 17 -5 34 -11 76 -26 158 35 190 142 16 55 17 56 43 47 18 -6 40 -6 63 0 20
6 36 9 36 8 0 -2 -20 -34 -45 -72 -107 -162 -147 -353 -110 -513 39 -163 131
-242 229 -196 43 21 78 76 97 155 20 79 16 334 -8 494 l-20 128 34 40 c18 22
33 44 33 50 0 20 -21 48 -36 48 -11 0 -14 5 -9 18 19 46 26 88 20 118 -4 23
-1 41 10 58 23 34 13 57 -46 110 -87 78 -153 84 -228 20 -40 -35 -91 -117 -91
-149 0 -22 -9 -19 -32 10 -85 109 -281 48 -358 -110 -16 -34 -25 -71 -27 -124
-4 -86 8 -122 47 -131 19 -4 29 -17 42 -55 23 -68 24 -125 1 -125 -40 0 -120
49 -168 102 -89 97 -101 129 -114 318 -20 275 -49 355 -119 329z m909 -257 l2
-123 -36 -26 c-20 -14 -41 -22 -48 -18 -16 10 -6 158 14 205 15 35 57 94 62
88 2 -2 5 -58 6 -126z m-302 -12 c31 -16 53 -88 53 -175 0 -84 -21 -159 -48
-169 -38 -15 -193 189 -180 237 19 76 119 137 175 107z m361 -539 c18 -197 4
-347 -36 -390 -12 -13 -16 -12 -33 3 -57 51 -77 251 -37 366 31 90 79 183 87
168 4 -7 13 -73 19 -147z"/>
<path d="M10135 1493 c-16 -9 -36 -23 -43 -32 -68 -86 -69 -189 -2 -295 l31
-48 -32 -36 c-45 -51 -95 -164 -113 -254 -18 -90 -20 -252 -6 -483 13 -204 24
-263 53 -274 127 -48 164 -52 337 -34 112 12 158 20 168 31 15 20 16 225 1
413 -21 263 -67 461 -132 569 -31 53 -32 58 -19 90 23 57 27 163 8 214 -30 78
-127 157 -193 156 -15 -1 -41 -8 -58 -17z m140 -160 c14 -20 16 -40 12 -90 -3
-36 -9 -69 -14 -74 -30 -30 -110 58 -120 130 -6 43 -6 43 67 54 14 3 28 5 31
6 4 0 15 -11 24 -26z m-11 -289 c81 -31 166 -425 166 -775 l0 -116 -130 -12
c-130 -13 -150 -11 -150 13 0 8 -7 20 -16 27 -14 11 -15 32 -10 154 4 77 12
183 17 236 13 114 5 139 -41 139 -26 0 -30 4 -30 28 0 37 36 165 60 212 43 84
84 113 134 94z"/>
<path d="M7957 332 c-24 -26 -22 -34 25 -125 54 -105 137 -193 191 -203 64
-11 115 11 179 76 58 59 77 105 64 148 -16 49 -124 82 -267 82 -83 0 -98 3
-114 20 -23 25 -57 26 -78 2z m318 -141 l30 -7 -36 -37 c-21 -20 -46 -37 -57
-37 -23 0 -77 42 -93 71 -9 18 -5 19 58 18 37 -1 82 -4 98 -8z"/>
</g>
</svg>
